<svg width="90" height="70" viewBox="0 0 90 70" fill="none" xmlns="http://www.w3.org/2000/svg">
<rect width="90" height="70" fill="#586E75"/>
<path d="M21.7031 25.2969C21.7031 25.401 21.6875 25.4948 21.6562 25.5781C21.6354 25.651 21.6094 25.7292 21.5781 25.8125C21.401 26.2292 21.2135 26.6406 21.0156 27.0469C20.8281 27.4427 20.6719 27.8646 20.5469 28.3125C20.224 29.4896 19.9635 30.7135 19.7656 31.9844C19.5781 33.2448 19.4427 34.5417 19.3594 35.875C20.2031 35.8958 21.0885 36 22.0156 36.1875C22.9427 36.375 23.8438 36.651 24.7188 37.0156C25.375 36.6198 25.974 36.1615 26.5156 35.6406C27.0677 35.1198 27.5365 34.5417 27.9219 33.9062C28.3177 33.2708 28.6198 32.5885 28.8281 31.8594C29.0469 31.1302 29.1458 30.3646 29.125 29.5625C29.125 28.3646 28.9167 27.2917 28.5 26.3438C28.0938 25.3958 27.5469 24.5938 26.8594 23.9375C26.1823 23.2812 25.4062 22.7812 24.5312 22.4375C23.6562 22.0833 22.7552 21.9062 21.8281 21.9062C21.1823 21.9062 20.5104 22.026 19.8125 22.2656C19.1146 22.5052 18.4792 22.8385 17.9062 23.2656C17.3333 23.6927 16.8594 24.2083 16.4844 24.8125C16.1198 25.4167 15.9375 26.0833 15.9375 26.8125C15.9375 27.0938 15.9688 27.349 16.0312 27.5781C16.1042 27.8073 16.1771 28.0156 16.25 28.2031C16.3333 28.3906 16.4062 28.5677 16.4688 28.7344C16.5417 28.8906 16.5781 29.0469 16.5781 29.2031C16.5781 29.5052 16.474 29.7604 16.2656 29.9688C16.0677 30.1667 15.8229 30.2656 15.5312 30.2656C15.2604 30.2656 15.0469 30.1927 14.8906 30.0469C14.7344 29.901 14.6094 29.7188 14.5156 29.5C14.4323 29.2812 14.375 29.0521 14.3438 28.8125C14.3229 28.5625 14.3125 28.3438 14.3125 28.1562C14.3125 27.2396 14.526 26.4115 14.9531 25.6719C15.3906 24.9219 15.9583 24.2552 16.6562 23.6719C17.0938 23.2969 17.5312 22.9688 17.9688 22.6875C18.4167 22.3958 18.875 22.1562 19.3438 21.9688C19.8125 21.7708 20.3021 21.625 20.8125 21.5312C21.3333 21.4271 21.8854 21.375 22.4688 21.375C23.875 21.375 25.1406 21.5833 26.2656 22C27.3906 22.4062 28.3438 22.9688 29.125 23.6875C29.9062 24.3958 30.5052 25.224 30.9219 26.1719C31.349 27.1198 31.5625 28.1302 31.5625 29.2031C31.5625 30.1927 31.4115 31.1094 31.1094 31.9531C30.8073 32.7865 30.3958 33.5521 29.875 34.25C29.3542 34.9375 28.7396 35.5521 28.0312 36.0938C27.3229 36.6354 26.5573 37.1042 25.7344 37.5C26.2656 37.7917 26.7552 38.125 27.2031 38.5C27.6615 38.8646 28.0573 39.2812 28.3906 39.75C28.724 40.2083 28.9844 40.7135 29.1719 41.2656C29.3594 41.8177 29.4531 42.4167 29.4531 43.0625C29.4531 43.7708 29.3125 44.4375 29.0312 45.0625C28.75 45.6979 28.3698 46.2552 27.8906 46.7344C27.4115 47.224 26.8542 47.6094 26.2188 47.8906C25.5938 48.1719 24.9323 48.3125 24.2344 48.3125C23.8281 48.3125 23.401 48.2344 22.9531 48.0781C22.5052 47.9323 22.0781 47.7344 21.6719 47.4844C21.2656 47.2344 20.8906 46.9479 20.5469 46.625C20.2031 46.3021 19.9271 45.9688 19.7188 45.625L19.9375 45.4375C20.4688 45.8854 21.0729 46.2448 21.75 46.5156C22.4375 46.7969 23.125 46.9375 23.8125 46.9375C24.3438 46.8542 24.8177 46.6667 25.2344 46.375C25.6615 46.0833 26.0208 45.724 26.3125 45.2969C26.6042 44.8802 26.8229 44.4167 26.9688 43.9062C27.125 43.4062 27.2031 42.901 27.2031 42.3906C27.2031 41.3594 26.974 40.4792 26.5156 39.75C26.0677 39.0208 25.4844 38.4167 24.7656 37.9375C23.8698 38.2917 22.9531 38.5573 22.0156 38.7344C21.0781 38.9115 20.151 39.0104 19.2344 39.0312C19.2135 40.6771 19.2344 42.2917 19.2969 43.875C19.3698 45.4688 19.4583 46.9792 19.5625 48.4062L19.2656 48.5C19.0052 47.8125 18.7812 47.0781 18.5938 46.2969C18.4062 45.5156 18.25 44.7135 18.125 43.8906C18 43.0677 17.8958 42.2396 17.8125 41.4062C17.7396 40.5625 17.6875 39.7344 17.6562 38.9219C17.4062 38.8802 17.151 38.8229 16.8906 38.75C16.6406 38.6667 16.4115 38.5677 16.2031 38.4531C16.0052 38.3281 15.8438 38.1823 15.7188 38.0156C15.5938 37.849 15.5312 37.6458 15.5312 37.4062C15.5312 37.1667 15.5885 36.9635 15.7031 36.7969C15.8281 36.6302 15.9896 36.4896 16.1875 36.375C16.3854 36.25 16.6094 36.1562 16.8594 36.0938C17.1094 36.0208 17.3594 35.9688 17.6094 35.9375C17.6094 35.5 17.6146 34.9635 17.625 34.3281C17.6354 33.6927 17.6615 33.0208 17.7031 32.3125C17.7552 31.5938 17.8281 30.8698 17.9219 30.1406C18.026 29.401 18.1719 28.7083 18.3594 28.0625C18.5469 27.4167 18.7812 26.8438 19.0625 26.3438C19.3438 25.8438 19.6927 25.474 20.1094 25.2344C20.2656 25.1406 20.4375 25.0573 20.625 24.9844C20.8125 24.901 21.0104 24.8594 21.2188 24.8594C21.5417 24.8594 21.7031 25.0052 21.7031 25.2969ZM19.25 38.6094C20.0625 38.599 20.8646 38.4948 21.6562 38.2969C22.4583 38.099 23.2188 37.8177 23.9375 37.4531C23.2396 37.1094 22.4896 36.8542 21.6875 36.6875C20.8958 36.5104 20.1094 36.401 19.3281 36.3594C19.3073 36.7344 19.2917 37.1094 19.2812 37.4844C19.2708 37.8594 19.2604 38.2344 19.25 38.6094ZM16.1094 37.2969C16.1094 37.4531 16.151 37.5938 16.2344 37.7188C16.3281 37.8333 16.4427 37.9375 16.5781 38.0312C16.724 38.125 16.8854 38.2083 17.0625 38.2812C17.25 38.3438 17.4427 38.3958 17.6406 38.4375C17.6302 38.0833 17.6198 37.7396 17.6094 37.4062C17.6094 37.0729 17.6094 36.7396 17.6094 36.4062C17.4219 36.4271 17.2396 36.4635 17.0625 36.5156C16.8854 36.5573 16.724 36.6146 16.5781 36.6875C16.4427 36.75 16.3281 36.8333 16.2344 36.9375C16.151 37.0417 16.1094 37.1615 16.1094 37.2969ZM40.8906 38.3906C40.8906 39.1198 40.7708 39.7969 40.5312 40.4219C40.2917 41.0469 39.9531 41.5885 39.5156 42.0469C39.0781 42.5052 38.5521 42.8646 37.9375 43.125C37.3333 43.3854 36.6615 43.5156 35.9219 43.5156C35.2656 43.5156 34.6719 43.3906 34.1406 43.1406C33.6198 42.901 33.1719 42.5729 32.7969 42.1562C32.4219 41.7396 32.1354 41.2552 31.9375 40.7031C31.7396 40.1406 31.6406 39.5417 31.6406 38.9062C31.6406 38.375 31.7135 37.8698 31.8594 37.3906C32.0156 36.9115 32.2292 36.4688 32.5 36.0625C32.7708 35.6458 33.0938 35.2656 33.4688 34.9219C33.8438 34.5677 34.25 34.25 34.6875 33.9688L34.875 34.1094C34.4375 34.6198 34.0938 35.1823 33.8438 35.7969C33.5938 36.4115 33.4688 37.0625 33.4688 37.75C33.4688 38.25 33.5417 38.7604 33.6875 39.2812C33.8438 39.7917 34.0677 40.2604 34.3594 40.6875C34.651 41.1146 35.0156 41.4635 35.4531 41.7344C35.8906 42.0052 36.3906 42.1406 36.9531 42.1406C37.3073 42.1406 37.6406 42.0677 37.9531 41.9219C38.2656 41.776 38.5365 41.5781 38.7656 41.3281C39.0052 41.0781 39.1927 40.7969 39.3281 40.4844C39.474 40.1615 39.5469 39.8281 39.5469 39.4844C39.5469 39.151 39.4948 38.8281 39.3906 38.5156C39.2969 38.1927 39.1615 37.8958 38.9844 37.625C38.8073 37.3438 38.5938 37.0938 38.3438 36.875C38.0938 36.6458 37.8229 36.4583 37.5312 36.3125C37.3646 36.2292 37.2031 36.1667 37.0469 36.125C36.901 36.0833 36.7396 36.0365 36.5625 35.9844C36.4896 35.974 36.4115 35.9583 36.3281 35.9375C36.2448 35.9062 36.1667 35.875 36.0938 35.8438C36.0208 35.8021 35.9583 35.75 35.9062 35.6875C35.8542 35.625 35.8281 35.5469 35.8281 35.4531C35.8281 35.2656 35.8958 35.0938 36.0312 34.9375C36.1667 34.7812 36.3281 34.6458 36.5156 34.5312C36.7031 34.4062 36.901 34.3125 37.1094 34.25C37.3177 34.1771 37.5 34.1406 37.6562 34.1406C38.1875 34.1406 38.6562 34.276 39.0625 34.5469C39.4688 34.8177 39.8073 35.1615 40.0781 35.5781C40.349 35.9948 40.5521 36.4531 40.6875 36.9531C40.8229 37.4531 40.8906 37.9323 40.8906 38.3906ZM56.6875 40.7656C56.5208 41.1094 56.3125 41.4219 56.0625 41.7031C55.8125 41.974 55.5312 42.2083 55.2188 42.4062C54.9062 42.5938 54.5729 42.7396 54.2188 42.8438C53.8646 42.9479 53.4948 43 53.1094 43C52.2969 43 51.6042 42.8021 51.0312 42.4062C50.4688 42.0104 49.9948 41.4948 49.6094 40.8594C49.3281 41.1719 49.0156 41.4844 48.6719 41.7969C48.3385 42.099 47.9792 42.3698 47.5938 42.6094C47.2188 42.8385 46.8281 43.026 46.4219 43.1719C46.0156 43.3177 45.6094 43.3906 45.2031 43.3906C44.7135 43.3906 44.276 43.2917 43.8906 43.0938C43.5052 42.8958 43.1771 42.6354 42.9062 42.3125C42.6354 41.9792 42.4271 41.6042 42.2812 41.1875C42.1354 40.7604 42.0625 40.3177 42.0625 39.8594C42.0625 39.1719 42.2135 38.4792 42.5156 37.7812C42.8281 37.0833 43.2344 36.4531 43.7344 35.8906C44.2448 35.3177 44.8281 34.8542 45.4844 34.5C46.1406 34.1458 46.8229 33.9688 47.5312 33.9688C47.7396 33.9688 47.9219 33.9896 48.0781 34.0312V33.375C48.0781 33.0729 48.0885 32.6719 48.1094 32.1719C48.1302 31.6719 48.1719 31.1198 48.2344 30.5156C48.2969 29.901 48.375 29.2604 48.4688 28.5938C48.5729 27.9167 48.7031 27.25 48.8594 26.5938C49.026 25.9271 49.2188 25.2969 49.4375 24.7031C49.6562 24.099 49.9115 23.5729 50.2031 23.125C50.4948 22.6667 50.8281 22.3021 51.2031 22.0312C51.5781 21.7604 52 21.625 52.4688 21.625C53.0208 21.625 53.4688 21.7865 53.8125 22.1094C54.1562 22.4323 54.4271 22.8333 54.625 23.3125C54.8229 23.7812 54.9531 24.2812 55.0156 24.8125C55.0885 25.3438 55.125 25.8177 55.125 26.2344C55.125 26.776 55.0729 27.4062 54.9688 28.125C54.8646 28.8333 54.7188 29.5885 54.5312 30.3906C54.3438 31.1823 54.1198 31.9948 53.8594 32.8281C53.599 33.6615 53.3177 34.4635 53.0156 35.2344C52.7135 36.0052 52.3854 36.724 52.0312 37.3906C51.6875 38.0469 51.3385 38.6042 50.9844 39.0625C51.1198 39.4688 51.2812 39.8438 51.4688 40.1875C51.6667 40.5312 51.8958 40.8281 52.1562 41.0781C52.4167 41.3281 52.7135 41.526 53.0469 41.6719C53.3802 41.8073 53.7604 41.875 54.1875 41.875C55.1667 41.875 55.9688 41.4844 56.5938 40.7031L56.6875 40.7656ZM50.2812 32.0625C50.2812 32.4375 50.2812 32.875 50.2812 33.375C50.2812 33.8646 50.2917 34.3854 50.3125 34.9375C50.3438 35.4896 50.3906 36.0573 50.4531 36.6406C50.526 37.2135 50.6302 37.7708 50.7656 38.3125C51.2031 37.4688 51.6042 36.5469 51.9688 35.5469C52.3333 34.5365 52.6458 33.5052 52.9062 32.4531C53.1771 31.3906 53.3854 30.3333 53.5312 29.2812C53.6771 28.2292 53.75 27.2344 53.75 26.2969C53.75 26.099 53.7396 25.8125 53.7188 25.4375C53.6979 25.0625 53.6406 24.6927 53.5469 24.3281C53.4531 23.9531 53.3125 23.6302 53.125 23.3594C52.9375 23.0781 52.6823 22.9375 52.3594 22.9375C52.1094 22.9375 51.8854 23.0573 51.6875 23.2969C51.4896 23.526 51.3177 23.8385 51.1719 24.2344C51.026 24.6198 50.901 25.0625 50.7969 25.5625C50.7031 26.0625 50.6198 26.5833 50.5469 27.125C50.4844 27.6667 50.4323 28.2031 50.3906 28.7344C50.3594 29.2656 50.3333 29.7604 50.3125 30.2188C50.3021 30.6667 50.2917 31.0573 50.2812 31.3906C50.2812 31.7135 50.2812 31.9375 50.2812 32.0625ZM46.3438 41.6875C46.9375 41.6875 47.4844 41.5729 47.9844 41.3438C48.4948 41.1146 48.9583 40.8125 49.375 40.4375C49.1771 40.0521 49.0052 39.6406 48.8594 39.2031C48.724 38.7552 48.6042 38.3073 48.5 37.8594C48.4062 37.401 48.3281 36.9427 48.2656 36.4844C48.2135 36.026 48.1719 35.5833 48.1406 35.1562C48.0156 35.0208 47.8594 34.9115 47.6719 34.8281C47.4844 34.7344 47.2552 34.6875 46.9844 34.6875C46.4948 34.6875 46.0573 34.8229 45.6719 35.0938C45.2969 35.3542 44.9792 35.6875 44.7188 36.0938C44.4583 36.4896 44.2604 36.9271 44.125 37.4062C43.9896 37.875 43.9219 38.3229 43.9219 38.75C43.9219 39.1458 43.9635 39.526 44.0469 39.8906C44.1406 40.2448 44.2865 40.5573 44.4844 40.8281C44.6823 41.0885 44.9323 41.2969 45.2344 41.4531C45.5469 41.6094 45.9167 41.6875 46.3438 41.6875ZM69.4219 40.7031C69.2448 41.0781 69.026 41.4531 68.7656 41.8281C68.5156 42.1927 68.2344 42.526 67.9219 42.8281C67.6094 43.1198 67.2656 43.3594 66.8906 43.5469C66.5156 43.7344 66.1146 43.8281 65.6875 43.8281C65.2188 43.8281 64.8125 43.7031 64.4688 43.4531C64.125 43.2135 63.8333 42.8958 63.5938 42.5C63.3542 42.0938 63.1562 41.6302 63 41.1094C62.8438 40.5885 62.7135 40.0521 62.6094 39.5C62.5052 38.9479 62.4167 38.3958 62.3438 37.8438C62.2812 37.2917 62.2188 36.7865 62.1562 36.3281C61.8229 36.7656 61.5208 37.2292 61.25 37.7188C60.9792 38.2083 60.7188 38.7188 60.4688 39.25C60.2188 39.7708 59.974 40.3021 59.7344 40.8438C59.4948 41.3854 59.2396 41.9219 58.9688 42.4531C58.9062 42.5677 58.8438 42.6927 58.7812 42.8281C58.7188 42.9531 58.6458 43.0677 58.5625 43.1719C58.4792 43.2865 58.3802 43.3802 58.2656 43.4531C58.151 43.526 58.0156 43.5625 57.8594 43.5625C57.7135 43.5625 57.5885 43.5365 57.4844 43.4844C57.3906 43.4323 57.3073 43.3646 57.2344 43.2812C57.1719 43.2083 57.1198 43.125 57.0781 43.0312C57.0469 42.9375 57.0208 42.849 57 42.7656C56.875 42.3177 56.7604 41.7552 56.6562 41.0781C56.5625 40.401 56.4792 39.6771 56.4062 38.9062C56.3333 38.1354 56.276 37.3542 56.2344 36.5625C56.2031 35.7604 56.1875 35.0208 56.1875 34.3438C56.1875 33.375 56.25 32.3802 56.375 31.3594C56.5 30.3281 56.6927 29.3229 56.9531 28.3438C57.224 27.3646 57.5625 26.4427 57.9688 25.5781C58.3854 24.7031 58.875 23.9375 59.4375 23.2812C60 22.625 60.6406 22.1042 61.3594 21.7188C62.0885 21.3333 62.901 21.1406 63.7969 21.1406C64.3906 21.1406 64.8594 21.3177 65.2031 21.6719C65.5469 22.0156 65.7188 22.5104 65.7188 23.1562C65.7188 24.125 65.5469 25.0573 65.2031 25.9531C64.8698 26.8385 64.4375 27.6875 63.9062 28.5C63.3854 29.3125 62.8021 30.0833 62.1562 30.8125C61.5208 31.5312 60.9062 32.1979 60.3125 32.8125L60.1094 32.6562C60.3698 32.3646 60.6458 32.0052 60.9375 31.5781C61.2396 31.1406 61.5312 30.6719 61.8125 30.1719C62.1042 29.6615 62.3802 29.1302 62.6406 28.5781C62.901 28.0156 63.1302 27.4635 63.3281 26.9219C63.526 26.3802 63.6823 25.8594 63.7969 25.3594C63.9115 24.849 63.9688 24.3854 63.9688 23.9688C63.9688 23.75 63.9479 23.5417 63.9062 23.3438C63.8646 23.1458 63.7917 22.974 63.6875 22.8281C63.5833 22.6719 63.4479 22.5521 63.2812 22.4688C63.125 22.375 62.9323 22.3281 62.7031 22.3281C62.2448 22.3281 61.8125 22.5052 61.4062 22.8594C61.0104 23.2135 60.6458 23.6927 60.3125 24.2969C59.9792 24.8906 59.6823 25.5833 59.4219 26.375C59.1719 27.1667 58.9531 27.9948 58.7656 28.8594C58.5885 29.724 58.4531 30.599 58.3594 31.4844C58.2656 32.3698 58.2188 33.2135 58.2188 34.0156C58.2188 34.5573 58.2188 35.1042 58.2188 35.6562C58.2188 36.2083 58.2292 36.7865 58.25 37.3906C58.2812 37.9948 58.3281 38.6354 58.3906 39.3125C58.4635 39.9896 58.5625 40.724 58.6875 41.5156C59.1458 40.3281 59.6302 39.1667 60.1406 38.0312C60.651 36.8854 61.2031 35.8385 61.7969 34.8906C61.8802 34.7552 61.9635 34.6198 62.0469 34.4844C62.1406 34.349 62.2396 34.2292 62.3438 34.125C62.4479 34.0104 62.5625 33.9167 62.6875 33.8438C62.8125 33.7708 62.9479 33.7344 63.0938 33.7344C63.2708 33.7344 63.4115 33.7865 63.5156 33.8906C63.6198 33.9844 63.7031 34.1042 63.7656 34.25C63.8281 34.3958 63.8698 34.5521 63.8906 34.7188C63.9219 34.8854 63.9479 35.0365 63.9688 35.1719C64.0104 35.474 64.0573 35.8646 64.1094 36.3438C64.1615 36.8229 64.224 37.3385 64.2969 37.8906C64.3698 38.4323 64.4583 38.9792 64.5625 39.5312C64.6771 40.0833 64.8177 40.5833 64.9844 41.0312C65.1615 41.4688 65.3698 41.8281 65.6094 42.1094C65.849 42.3906 66.1354 42.5312 66.4688 42.5312C66.7396 42.5312 67.0104 42.474 67.2812 42.3594C67.5521 42.2448 67.8125 42.099 68.0625 41.9219C68.3125 41.7448 68.5417 41.5417 68.75 41.3125C68.9688 41.0833 69.151 40.8594 69.2969 40.6406L69.4219 40.7031ZM72.4688 30.3906C72.4688 30.599 72.4219 30.8073 72.3281 31.0156C72.2344 31.224 72.1094 31.4115 71.9531 31.5781C71.8073 31.7344 71.6354 31.8646 71.4375 31.9688C71.2396 32.0729 71.0365 32.125 70.8281 32.125C70.5573 32.125 70.3385 32.0365 70.1719 31.8594C70.0156 31.6823 69.9375 31.4583 69.9375 31.1875C69.9375 30.9792 69.9844 30.776 70.0781 30.5781C70.1719 30.3698 70.2917 30.1875 70.4375 30.0312C70.5938 29.875 70.7656 29.75 70.9531 29.6562C71.151 29.5521 71.3542 29.5 71.5625 29.5C71.8333 29.5 72.0521 29.5833 72.2188 29.75C72.3854 29.9167 72.4688 30.1302 72.4688 30.3906ZM76.8438 40.7656C76.6042 41.1615 76.3177 41.526 75.9844 41.8594C75.6615 42.1823 75.3021 42.4688 74.9062 42.7188C74.5208 42.9583 74.1042 43.1458 73.6562 43.2812C73.2188 43.4167 72.7656 43.4844 72.2969 43.4844C71.7135 43.4844 71.1927 43.3854 70.7344 43.1875C70.2865 42.9896 69.9062 42.7188 69.5938 42.375C69.2917 42.0208 69.0573 41.6094 68.8906 41.1406C68.7344 40.6615 68.6562 40.1406 68.6562 39.5781C68.6562 38.974 68.7448 38.401 68.9219 37.8594C69.099 37.3177 69.3438 36.8125 69.6562 36.3438C69.9688 35.8646 70.3333 35.4271 70.75 35.0312C71.1771 34.6354 71.6302 34.2812 72.1094 33.9688L72.2969 34.1094C71.7865 34.7135 71.3698 35.3906 71.0469 36.1406C70.7344 36.8906 70.5781 37.6719 70.5781 38.4844C70.5781 38.9531 70.6302 39.4062 70.7344 39.8438C70.849 40.2708 71.0208 40.651 71.25 40.9844C71.4896 41.3177 71.7917 41.5833 72.1562 41.7812C72.5208 41.9792 72.9635 42.0781 73.4844 42.0781C74.099 42.0781 74.6823 41.9479 75.2344 41.6875C75.7969 41.4271 76.3021 41.099 76.75 40.7031L76.8438 40.7656Z" fill="#FDF6E3"/>
</svg>
