<svg width="259" height="311" viewBox="0 0 259 311" fill="none" xmlns="http://www.w3.org/2000/svg">
<path d="M258.302 64.2203H33.8497V310.38H258.302V64.2203Z" fill="#FAFAFA"/>
<path d="M258.293 310.371C258.293 308.595 258.213 211.314 258.089 64.2114L258.293 64.4157H33.8674L34.0983 64.1847C34.0983 154.786 34.0983 239.356 34.0983 310.345L33.903 310.149L258.355 310.345L33.903 310.54H33.7076V310.345C33.7076 239.356 33.7076 154.768 33.7076 64.1847V63.9538H33.9651H258.391H258.595V64.1492C258.373 211.323 258.293 308.621 258.293 310.371Z" fill="#263238"/>
<path d="M197.593 259.457H111.823C104.706 259.457 98.9367 265.227 98.9367 272.345V274.957C98.9367 282.075 104.706 287.845 111.823 287.845H197.593C204.71 287.845 210.479 282.075 210.479 274.957V272.345C210.479 265.227 204.71 259.457 197.593 259.457Z" fill="#E8505B"/>
<g opacity="0.5">
<path opacity="0.5" d="M197.593 259.457H111.823C104.706 259.457 98.9367 265.227 98.9367 272.345V274.957C98.9367 282.075 104.706 287.845 111.823 287.845H197.593C204.71 287.845 210.479 282.075 210.479 274.957V272.345C210.479 265.227 204.71 259.457 197.593 259.457Z" fill="black"/>
</g>
<path d="M188.233 259.457H102.462C95.3457 259.457 89.5764 265.227 89.5764 272.345V274.957C89.5764 282.075 95.3457 287.845 102.462 287.845H188.233C195.349 287.845 201.119 282.075 201.119 274.957V272.345C201.119 265.227 195.349 259.457 188.233 259.457Z" fill="#E8505B"/>
<path d="M211.385 240.528C211.385 240.653 182.842 240.759 147.639 240.759C112.435 240.759 83.8838 240.653 83.8838 240.528C83.8838 240.404 112.418 240.297 147.639 240.297C182.86 240.297 211.385 240.395 211.385 240.528Z" fill="#263238"/>
<path d="M231.331 248.238C231.331 248.363 193.854 248.469 147.639 248.469C101.423 248.469 63.9377 248.363 63.9377 248.238C63.9377 248.114 101.406 248.008 147.639 248.008C193.872 248.008 231.331 248.114 231.331 248.238Z" fill="#263238"/>
<path d="M44.3911 73.7867C44.3911 74.1627 44.2797 74.5302 44.0708 74.8428C43.862 75.1554 43.5652 75.399 43.2179 75.5429C42.8707 75.6867 42.4885 75.7244 42.1199 75.651C41.7512 75.5777 41.4126 75.3966 41.1468 75.1308C40.881 74.865 40.7 74.5263 40.6267 74.1575C40.5534 73.7888 40.591 73.4066 40.7349 73.0593C40.8787 72.7119 41.1223 72.4151 41.4348 72.2062C41.7473 71.9973 42.1148 71.8859 42.4907 71.8859C42.7406 71.8847 42.9882 71.933 43.2193 72.0281C43.4504 72.1233 43.6604 72.2632 43.8371 72.44C44.0138 72.6167 44.1538 72.8267 44.2489 73.0579C44.344 73.289 44.3923 73.5368 44.3911 73.7867Z" fill="#E0E0E0"/>
<path d="M48.8315 75.6964C49.8811 75.6964 50.732 74.8454 50.732 73.7956C50.732 72.7458 49.8811 71.8947 48.8315 71.8947C47.7819 71.8947 46.931 72.7458 46.931 73.7956C46.931 74.8454 47.7819 75.6964 48.8315 75.6964Z" fill="#E0E0E0"/>
<path d="M57.0639 73.7867C57.0639 74.1626 56.9525 74.5301 56.7437 74.8427C56.5348 75.1553 56.238 75.399 55.8908 75.5428C55.5435 75.6867 55.1614 75.7244 54.7927 75.651C54.424 75.5777 54.0854 75.3966 53.8196 75.1308C53.5538 74.865 53.3729 74.5263 53.2995 74.1575C53.2262 73.7888 53.2638 73.4066 53.4077 73.0593C53.5515 72.7119 53.7951 72.415 54.1076 72.2062C54.4202 71.9973 54.7876 71.8858 55.1635 71.8858C55.6675 71.8858 56.1509 72.0861 56.5073 72.4426C56.8637 72.7991 57.0639 73.2825 57.0639 73.7867Z" fill="#E0E0E0"/>
<path d="M241.588 113.598L245.283 100.274C245.283 100.274 246.606 94.8648 246.926 93.6035C247.343 91.9336 246.171 91.4095 245.487 92.5465C245.221 92.9728 242.299 98.48 242.299 98.48C242.299 98.48 244.626 89.4643 244.714 89.1356C245.469 86.1955 243.64 86.4709 243.107 87.5545C242.574 88.6382 239.262 97.5118 239.262 97.5118C242.361 85.9202 241.393 84.8987 240.514 84.7121C239.635 84.5256 236.961 95.1313 236.961 95.1313C236.258 93.9245 235.304 92.8825 234.164 92.0757C231.367 90.1482 226.695 92.0757 226.473 93.3903C226.251 94.7049 227.912 95.078 227.912 95.078C231.42 92.813 235.017 95.5577 234.652 98.8975C234.288 102.237 230.043 101.784 229.519 99.4038C228.356 94.172 226.562 95.8508 226.562 95.8508L228.338 107.398L226.429 113.189" fill="#FFBE9D"/>
<path d="M108.652 167.861L188.446 167.328L190.639 221.591L108.013 220.774L108.652 167.861Z" fill="#455A64"/>
<path d="M108.652 167.861L149.184 135.102L188.446 167.328" fill="#263238"/>
<path d="M108.057 220.774C107.951 220.685 114.345 213.712 122.329 205.203C130.312 196.694 136.866 189.881 136.964 189.969C137.062 190.058 130.677 197.031 122.693 205.54C114.709 214.05 108.111 220.872 108.057 220.774Z" fill="#263238"/>
<path d="M190.648 221.591C190.551 221.68 184.334 214.84 176.768 206.313C169.201 197.786 163.118 190.804 163.233 190.716C163.349 190.627 169.548 197.466 177.114 205.993C184.68 214.521 190.737 221.502 190.648 221.591Z" fill="#263238"/>
<path d="M188.446 167.328L148.358 199.323L108.652 167.861" fill="#263238"/>
<path d="M55.3234 106.714H55.5898L54.5241 103.161L51.105 89.5176C50.9527 88.9104 51.0333 88.2682 51.3308 87.7174C51.6283 87.1667 52.1212 86.7473 52.7124 86.5419L55.1724 86.4531L63.5914 82.5182C63.9574 82.382 64.3489 82.328 64.7381 82.36C65.1274 82.392 65.5048 82.5091 65.8437 82.7032C66.1827 82.8973 66.4748 83.1635 66.6994 83.483C66.9241 83.8026 67.0757 84.1676 67.1437 84.5523C67.4545 87.066 69.1596 93.7989 70.9713 91.4362L71.1045 91.2852C73.6533 87.7766 76.8326 85.8758 78.138 85.9557C78.4196 85.9792 78.6885 86.0836 78.9121 86.2564C79.1357 86.4291 79.3046 86.6629 79.3985 86.9295C79.4923 87.1961 79.5071 87.4841 79.4411 87.7589C79.375 88.0337 79.2309 88.2835 79.0261 88.4783C78.8962 88.6485 78.733 88.7906 78.5465 88.8958C78.4507 88.9518 78.3588 89.0141 78.2712 89.0823C77.1436 90.0784 76.1254 91.1921 75.234 92.4044C74.4159 93.4732 73.788 94.6752 73.378 95.9573C72.925 97.3785 72.5964 98.6221 72.3389 99.6702L72.9961 106.634" fill="#FFBE9D"/>
<path d="M77.8094 44.9009C77.8094 44.9009 67.9607 43.0178 53.8314 30.1649C39.7021 17.312 32.7041 -0.0976939 31.0167 0.0355432C29.3294 0.16878 21.914 -3.03779 8.74381 27.811C-4.42635 58.6599 1.32838 65.5793 4.10806 65.4461C6.88773 65.3128 25.6528 59.5037 37.5086 60.5074C49.3644 61.5111 64.7192 67.2403 64.7192 67.2403L77.8094 44.9009Z" fill="#455A64"/>
<path d="M99.07 60.916L95.9084 67.3558L94.4964 70.2426C93.5617 72.1394 91.9381 73.6077 89.9573 74.3473C87.9766 75.0869 85.7883 75.0421 83.8395 74.222L62.65 67.5068L74.044 39.2961L95.3134 49.8662C97.2683 50.842 98.7595 52.5498 99.4628 54.6187C100.166 56.6876 100.025 58.9506 99.07 60.916Z" fill="#263238"/>
<path d="M87.2585 71.424L80.9532 84.7477L77.5785 83.9127L56.2647 102.291L49.8262 90.5213C49.8262 90.5213 62.5701 84.5967 64.8258 79.9334C67.0815 75.2701 64.2929 74.293 64.2929 74.293L70.172 67.187L87.2585 71.424Z" fill="#263238"/>
<path d="M9.88943 28.3351C2.90916 45.043 0.227168 59.8324 3.89492 61.369C7.56267 62.9057 16.2036 50.6035 23.1839 33.8955C30.1642 17.1876 32.8462 2.3983 29.1784 0.86163C25.5107 -0.675038 16.8697 11.6272 9.88943 28.3351Z" fill="#263238"/>
<path d="M101.13 70.0383L95.3933 68.4128L98.7236 61.6266L103.066 64.1492L101.13 70.0383Z" fill="#455A64"/>
<path d="M68.1472 69.6119L83.7062 78.9296L85.5002 75.1368L68.1472 69.6119Z" fill="#455A64"/>
<path d="M98.7236 61.6266L95.3933 68.4128L96.5745 68.7504L99.2387 61.9286L98.7236 61.6266Z" fill="#455A64"/>
<path d="M94.8427 63.2787C94.7717 63.4653 91.9032 62.3905 88.4397 60.9871C84.9762 59.5836 82.2232 58.2157 82.312 58.0292C82.4008 57.8427 85.2604 58.9174 88.7239 60.3209C92.1874 61.7243 94.9226 63.0922 94.8427 63.2787Z" fill="#455A64"/>
<path d="M96.5123 59.2372C96.4235 59.4237 93.848 58.4111 90.7043 56.99C87.5605 55.5688 85.1183 54.2541 85.2071 54.0676C85.2959 53.8811 87.8713 54.8937 91.0062 56.3238C94.1411 57.7538 96.5656 59.0596 96.5123 59.2372Z" fill="#455A64"/>
<path d="M92.7557 67.5157C92.7557 67.6134 92.0542 67.5157 90.9796 67.1782C90.429 67.0272 89.7896 66.8317 89.0791 66.6097C88.3687 66.3876 87.6315 66.0234 86.8412 65.7214C83.6885 64.3624 81.2729 63.0567 81.344 62.8524C81.415 62.6481 84.0082 63.7406 87.1253 65.0464C87.9069 65.375 88.6351 65.7392 89.3189 66.0057L91.1395 66.7074C92.1607 67.1071 92.7824 67.418 92.7557 67.5157Z" fill="#455A64"/>
<path d="M24.9778 24.2403C24.9778 24.2403 16.3191 19.2039 11.9942 30.8311C7.66924 42.4582 16.6654 44.0926 16.6654 44.0926C20.355 37.8987 23.1534 31.2155 24.9778 24.2403Z" fill="#455A64"/>
<path d="M33.6277 10.2859C33.6068 11.0268 33.5176 11.7642 33.3613 12.4888C33.1304 13.9011 32.8106 15.9529 32.3311 18.4667C32.0114 19.7102 31.6562 21.0692 31.2743 22.526C31.0789 23.2543 30.8835 24.0093 30.6793 24.7821L30.3596 25.9724C30.2441 26.3721 30.0931 26.754 29.9599 27.1626L28.1838 32.1723C28.0328 32.6076 27.873 33.0606 27.7131 33.4869C27.5532 33.9133 27.3401 34.3752 27.1536 34.7927L25.9636 37.4574C25.564 38.3457 25.1643 39.2339 24.7647 40.1221C24.5604 40.5485 24.3917 41.0104 24.1608 41.4012C23.9299 41.7921 23.7168 42.2184 23.4859 42.627C22.5978 44.2347 21.7097 45.798 20.9104 47.2814C20.6973 47.6456 20.5108 48.0187 20.2888 48.3651L19.6139 49.3866L18.3084 51.3318L15.9727 54.8138C14.4008 56.8301 13.0776 58.4289 12.1718 59.5304C11.7237 60.1238 11.2309 60.6821 10.6976 61.2003C11.0583 60.5506 11.4774 59.9352 11.9498 59.3616L15.5553 54.5029L17.8111 50.9499C18.2107 50.3192 18.637 49.6708 19.0632 49.0046L19.7293 47.9831C19.9424 47.6367 20.1201 47.2637 20.3332 46.8906L22.8553 42.2539L23.5125 41.0726C23.7345 40.664 23.9033 40.1843 24.1075 39.7935L25.2887 37.1288C25.6883 36.2405 26.0879 35.3523 26.4698 34.464C26.6563 34.0288 26.8783 33.5758 27.0382 33.1761L27.5088 31.8703C28.1305 30.1471 28.7433 28.4861 29.285 26.905C29.4182 26.5053 29.5781 26.1234 29.7024 25.7325C29.8267 25.3417 29.9155 24.942 30.031 24.5601C30.2441 23.7962 30.4484 23.05 30.6526 22.3306C31.0611 20.8916 31.443 19.5415 31.7983 18.3157C32.3133 15.8463 32.7396 13.8744 33.0416 12.4088C33.1824 11.6872 33.3783 10.9775 33.6277 10.2859Z" fill="#263238"/>
<path d="M84.7719 137.243L75.9622 103.783L53.9557 104.369L60.8028 151.064C61.6909 161.226 67.6587 167.87 77.6762 169.486C83.7151 170.455 90.2603 164.699 95.1092 160.977C98.2707 158.543 98.8302 159.023 102.098 156.056L116.308 145.806L116.654 147.493H116.565L118.972 176.024L148.332 199.118L183.348 171.059L182.549 158.916C182.638 158.916 182.718 158.739 182.549 158.739L181.661 144.989L199.6 165.569C201.71 168.646 204.619 171.088 208.014 172.632C211.409 174.177 215.161 174.765 218.866 174.334C222.57 173.902 226.087 172.468 229.037 170.184C231.986 167.901 234.256 164.856 235.603 161.377L244.839 114.3L224.555 109.938L215.061 143.834L192.424 117.782C179.352 100.745 164.095 102.184 164.095 102.184L135.961 101.687H135.898C135.064 101.687 119.345 102.211 108.688 113.598L84.7719 137.243Z" fill="#E8505B"/>
<path d="M193.517 119.638C193.517 119.638 193.215 119.496 192.629 119.309C191.75 119.04 190.827 118.943 189.911 119.025C188.465 119.181 187.056 119.583 185.746 120.215C184.192 120.908 182.585 121.992 180.711 123.084C178.708 124.398 176.382 125.136 173.988 125.216C172.657 125.14 171.347 124.84 170.116 124.328C168.855 123.831 167.603 123.218 166.288 122.694C163.55 121.581 160.546 121.297 157.647 121.876C154.628 122.454 151.857 124.15 149.024 125.794C147.621 126.629 146.157 127.36 144.646 127.979C143.164 128.559 141.611 128.936 140.028 129.098C137.012 129.436 133.959 129.014 131.147 127.872C128.666 126.769 126.326 125.374 124.176 123.715C122.124 122.232 120.233 120.819 118.377 119.745C116.711 118.77 114.917 118.032 113.048 117.551C111.639 117.194 110.181 117.074 108.732 117.195C107.501 117.333 106.301 117.672 105.18 118.199L105.384 118.075C105.526 117.995 105.739 117.879 106.032 117.737C106.882 117.374 107.779 117.132 108.697 117.018C110.168 116.864 111.654 116.96 113.093 117.302C114.994 117.762 116.821 118.489 118.519 119.46C120.402 120.526 122.311 121.939 124.371 123.404C126.503 125.033 128.822 126.399 131.28 127.472C135.505 129.169 140.217 129.194 144.459 127.543C145.951 126.932 147.394 126.208 148.776 125.376C151.591 123.742 154.415 122.01 157.541 121.423C160.524 120.845 163.612 121.154 166.422 122.312C169.086 123.386 171.457 124.772 173.97 124.852C176.483 124.932 178.668 123.839 180.524 122.818C182.38 121.796 184.023 120.677 185.613 120.002C186.956 119.375 188.399 118.99 189.876 118.865C190.809 118.794 191.748 118.921 192.629 119.238C192.942 119.329 193.241 119.463 193.517 119.638Z" fill="#FAFAFA"/>
<path d="M209.831 136.302C209.728 136.736 209.567 137.154 209.351 137.545C208.743 138.675 207.868 139.638 206.802 140.352C205.127 141.503 203.18 142.195 201.154 142.359C198.485 142.532 195.805 142.413 193.162 142.004C190.266 141.711 186.945 141.356 183.686 142.43C182.021 143.059 180.44 143.892 178.979 144.909C177.414 146.006 175.759 146.969 174.032 147.787C170.225 149.44 166.014 149.931 161.928 149.199C159.776 148.819 157.7 148.09 155.782 147.04C153.829 145.992 152.008 144.696 150.125 143.487C148.316 142.229 146.337 141.236 144.246 140.539C142.198 139.951 140.047 139.814 137.941 140.139C133.767 140.752 129.948 142.43 126.201 143.452C124.363 144.006 122.462 144.322 120.544 144.394C118.725 144.465 116.912 144.162 115.215 143.505C111.938 142.155 109.523 139.846 107.382 137.856C105.526 135.97 103.478 134.282 101.272 132.82C99.5824 131.756 97.6658 131.105 95.6775 130.919C94.4227 130.804 93.1578 130.956 91.9654 131.363C91.1572 131.665 90.7753 131.923 90.7576 131.896C91.122 131.642 91.5156 131.434 91.9298 131.274C93.1298 130.819 94.4161 130.637 95.6953 130.741C97.7193 130.897 99.677 131.533 101.406 132.598C103.649 134.046 105.733 135.728 107.622 137.616C109.78 139.597 112.178 141.853 115.375 143.15C117.025 143.796 118.79 144.098 120.561 144.038C122.445 143.958 124.31 143.635 126.112 143.079C127.977 142.555 129.868 141.898 131.813 141.302C133.79 140.582 135.825 140.035 137.897 139.668C140.067 139.327 142.285 139.463 144.397 140.068C146.529 140.783 148.55 141.793 150.401 143.07C152.292 144.296 154.104 145.593 156.013 146.623C157.89 147.648 159.92 148.362 162.026 148.737C166.025 149.459 170.149 148.987 173.881 147.378C177.434 145.832 180.187 143.15 183.579 142.049C185.199 141.54 186.891 141.297 188.588 141.329C190.138 141.357 191.686 141.469 193.224 141.667C195.836 142.087 198.486 142.227 201.128 142.084C203.118 141.941 205.038 141.29 206.705 140.192C207.759 139.501 208.638 138.573 209.271 137.483C209.689 136.746 209.804 136.293 209.831 136.302Z" fill="#FAFAFA"/>
<path d="M235.496 158.916C235.124 158.537 234.709 158.2 234.262 157.913C232.991 157.218 231.516 156.995 230.097 157.282C228.011 157.823 226.085 158.852 224.475 160.284C223.507 161.039 222.504 161.856 221.367 162.594C220.219 163.422 218.904 163.989 217.515 164.256C216.125 164.523 214.694 164.483 213.321 164.139C212.058 163.861 210.815 163.499 209.6 163.056C208.436 162.665 207.344 162.265 206.296 161.99C205.327 161.735 204.338 161.568 203.339 161.492C201.898 161.339 200.442 161.572 199.121 162.167C198.232 162.62 197.788 163.056 197.753 163.002C197.836 162.889 197.935 162.787 198.046 162.7C198.169 162.582 198.303 162.475 198.446 162.381C198.628 162.237 198.825 162.112 199.032 162.007C200.367 161.318 201.867 161.011 203.366 161.119C204.387 161.176 205.401 161.328 206.394 161.572C207.468 161.839 208.579 162.23 209.733 162.611C212.033 163.358 214.68 164.272 217.433 163.757C218.755 163.476 220.01 162.938 221.127 162.176C222.237 161.457 223.232 160.648 224.218 159.902C225.885 158.449 227.882 157.425 230.034 156.918C231.524 156.646 233.062 156.927 234.359 157.708C234.69 157.938 234.988 158.209 235.247 158.517C235.347 158.639 235.431 158.773 235.496 158.916Z" fill="#FAFAFA"/>
<path d="M239.954 133.388C239.732 133.595 239.473 133.757 239.19 133.868C238.436 134.208 237.627 134.412 236.802 134.472C235.581 134.553 234.355 134.442 233.169 134.143C231.738 133.765 230.332 133.296 228.96 132.74C227.609 132.198 226.212 131.782 224.786 131.496C223.611 131.288 222.409 131.288 221.234 131.496C220.162 131.718 219.147 132.157 218.25 132.784C218.426 132.536 218.65 132.325 218.907 132.162C219.586 131.688 220.353 131.353 221.163 131.176C222.363 130.92 223.601 130.89 224.813 131.088C226.277 131.36 227.711 131.776 229.093 132.331C230.451 132.874 231.835 133.349 233.24 133.752C234.384 134.056 235.565 134.193 236.748 134.161C237.854 134.093 238.939 133.831 239.954 133.388Z" fill="#FAFAFA"/>
<path d="M181.066 166.964C180.315 166.563 179.541 166.207 178.748 165.898C176.54 165.157 174.196 164.914 171.883 165.187C168.47 165.644 165.164 166.697 162.114 168.296C158.562 169.957 154.859 172.178 150.516 173.626C148.407 174.332 146.203 174.712 143.98 174.754C141.907 174.719 139.853 174.366 137.888 173.706C136.127 173.11 134.399 172.422 132.71 171.645C131.121 170.943 129.646 170.259 128.27 169.726C126.134 168.8 123.871 168.201 121.556 167.95L120.464 167.888H119.656C119.434 167.908 119.211 167.908 118.99 167.888C119.208 167.838 119.431 167.808 119.656 167.799L120.455 167.728C120.775 167.728 121.148 167.728 121.565 167.728C123.91 167.905 126.212 168.453 128.385 169.353C129.78 169.877 131.263 170.543 132.826 171.227C134.51 171.986 136.232 172.656 137.985 173.235C139.909 173.869 141.919 174.208 143.944 174.239C146.12 174.193 148.276 173.816 150.339 173.119C154.61 171.734 158.331 169.566 161.884 167.888C164.988 166.281 168.358 165.248 171.83 164.841C174.185 164.593 176.566 164.897 178.784 165.729C179.6 166.028 180.369 166.444 181.066 166.964Z" fill="#FAFAFA"/>
<path d="M59.7815 144.26C59.9071 144.169 60.0487 144.103 60.1989 144.065C60.644 143.947 61.1143 143.966 61.5488 144.118C62.2437 144.343 62.8599 144.763 63.3249 145.326C63.8792 146.081 64.3496 146.894 64.7281 147.751C65.2048 148.742 65.8716 149.629 66.6907 150.363C67.6576 151.166 68.7745 151.77 69.9766 152.139C72.7865 152.959 75.7506 153.102 78.6264 152.556C81.5336 151.992 84.4779 151.638 87.4361 151.499C89.8958 151.445 92.3171 152.115 94.3987 153.427C95.817 154.295 96.9263 155.588 97.5691 157.122C97.8051 157.685 97.9317 158.288 97.9421 158.899C97.7908 158.33 97.61 157.77 97.4003 157.22C96.7199 155.76 95.6109 154.542 94.2211 153.729C92.1781 152.495 89.8218 151.878 87.4361 151.952C84.5015 152.114 81.5815 152.479 78.6975 153.045C75.7424 153.604 72.6962 153.442 69.8167 152.574C68.564 152.165 67.407 151.506 66.4154 150.638C65.568 149.864 64.8853 148.928 64.4084 147.884C64.0558 147.038 63.6153 146.231 63.094 145.477C62.68 144.936 62.1234 144.521 61.4866 144.278C60.937 144.077 60.3352 144.071 59.7815 144.26Z" fill="#FAFAFA"/>
<path d="M79.0439 117.124C78.1244 116.393 77.0718 115.847 75.9445 115.517C74.7188 115.2 73.4446 115.116 72.1879 115.268C70.6549 115.488 69.1603 115.921 67.7475 116.556C66.22 117.213 64.808 117.968 63.5025 118.608C62.3503 119.196 61.1641 119.715 59.9502 120.162C59.1242 120.452 58.2743 120.669 57.4103 120.811C57.0957 120.88 56.7722 120.901 56.4512 120.873C57.5974 120.596 58.727 120.255 59.8348 119.851C61.0248 119.369 62.1897 118.826 63.3249 118.226C64.6126 117.568 66.0336 116.805 67.5877 116.129C69.0515 115.475 70.6052 115.044 72.1968 114.85C73.507 114.706 74.8329 114.827 76.0955 115.206C76.9446 115.463 77.7372 115.879 78.4311 116.431C78.6742 116.625 78.8815 116.859 79.0439 117.124Z" fill="#FAFAFA"/>
<g opacity="0.3">
<path opacity="0.3" d="M143.349 195.157C154.743 188.548 167.94 180.794 174.521 169.398C178.73 162.096 180.826 153.356 181.625 144.971L183.339 171.041L148.323 199.101L143.349 195.157Z" fill="black"/>
</g>
<g opacity="0.2">
<path opacity="0.2" d="M113.794 108.917C111.272 118.78 105.815 127.645 98.1464 134.339C96.321 136.059 94.1798 137.411 91.841 138.318C90.6715 138.763 89.4198 138.952 88.1709 138.871C86.922 138.79 85.7052 138.44 84.6032 137.847L84.7719 137.243L102.533 119.665L113.794 108.917Z" fill="black"/>
</g>
<path d="M87.0277 151.215C86.9566 151.215 87.2408 150.407 87.4806 149.11C87.7808 147.416 87.7958 145.684 87.525 143.985C87.2417 142.287 86.6711 140.65 85.8377 139.144C85.1894 137.989 84.6654 137.367 84.7276 137.296C85.2908 137.766 85.7633 138.335 86.1218 138.975C87.0598 140.48 87.6907 142.155 87.9779 143.905C88.2726 145.658 88.2122 147.452 87.8003 149.181C87.6682 149.9 87.4064 150.59 87.0277 151.215Z" fill="#263238"/>
<path d="M81.939 146.774C83.9014 144.196 84.798 140.962 84.4433 137.741C84.6662 138.172 84.7876 138.649 84.7986 139.135C85.0397 141.492 84.3868 143.854 82.9691 145.753C82.4185 146.445 81.9834 146.774 81.939 146.774Z" fill="#263238"/>
<path d="M114.984 128.387C115.109 128.387 115.872 135.493 116.609 144.198C117.347 152.903 117.906 160.044 117.773 160.053C117.64 160.062 116.885 152.947 116.148 144.242C115.411 135.538 114.851 128.396 114.984 128.387Z" fill="#263238"/>
<path d="M162.39 101.171C162.475 101.322 162.541 101.483 162.585 101.651C162.748 102.114 162.876 102.59 162.967 103.072C163.309 104.868 163.282 106.715 162.887 108.499C162.306 111.168 160.961 113.61 159.015 115.525C156.542 117.804 153.323 119.102 149.961 119.175C146.6 119.249 143.327 118.093 140.756 115.925C138.731 114.095 137.281 111.716 136.582 109.077C136.111 107.311 135.999 105.468 136.254 103.658C136.329 103.172 136.438 102.691 136.582 102.22C136.619 102.05 136.675 101.886 136.751 101.731C136.804 101.731 136.582 102.424 136.431 103.685C136.248 105.475 136.405 107.283 136.893 109.015C137.614 111.57 139.05 113.866 141.032 115.632C143.533 117.708 146.7 118.812 149.95 118.74C153.2 118.668 156.314 117.426 158.722 115.241C160.312 113.691 161.51 111.784 162.218 109.679C162.925 107.574 163.121 105.33 162.789 103.134C162.594 101.855 162.336 101.189 162.39 101.171Z" fill="#263238"/>
<path d="M213.987 154.679C213.704 152.837 213.653 150.966 213.836 149.11C213.868 147.243 214.13 145.388 214.617 143.585C214.751 143.585 214.466 146.081 214.298 149.137C214.129 152.192 214.12 154.679 213.987 154.679Z" fill="#263238"/>
<path d="M217.548 156.296C217.221 155.739 216.967 155.142 216.793 154.519C216.289 153.021 215.877 151.494 215.559 149.945C215.238 148.397 215.01 146.831 214.875 145.255C214.786 144.604 214.786 143.943 214.875 143.292C215.008 143.292 215.275 146.259 216.029 149.856C216.784 153.454 217.681 156.252 217.548 156.296Z" fill="#263238"/>
<path d="M181.643 156.811C181.51 156.811 181.217 151.81 180.986 145.628C180.755 139.446 180.675 134.445 180.8 134.436C180.924 134.427 181.217 139.437 181.448 145.61C181.679 151.784 181.768 156.802 181.643 156.811Z" fill="#263238"/>
<path d="M149.797 117.782C146.59 117.719 143.527 116.435 141.233 114.192C138.94 111.949 137.588 108.916 137.453 105.71C137.248 100.843 137.08 96.3748 137.08 96.3748C137.08 96.3748 126.893 95.2912 126.281 85.1918C125.668 75.0924 126.281 51.7848 126.281 51.7848C131.908 49.0342 138.168 47.8367 144.413 48.3161C150.658 48.7955 156.662 50.9344 161.804 54.5117L163.358 55.5954L162.612 105.337C162.592 106.997 162.245 108.637 161.589 110.163C160.933 111.688 159.983 113.068 158.792 114.225C157.601 115.382 156.193 116.291 154.649 116.902C153.106 117.512 151.457 117.811 149.797 117.782Z" fill="#FFBE9D"/>
<path d="M137.071 96.2327C141.741 96.0904 146.263 94.5631 150.063 91.8448C150.063 91.8448 147.301 99.2705 137.168 98.8531L137.071 96.2327Z" fill="#EB996E"/>
<path d="M162.63 66.1211C162.798 66.0412 169.477 63.7318 169.592 70.6601C169.708 77.5884 162.736 76.2649 162.718 76.0695C162.701 75.8741 162.63 66.1211 162.63 66.1211Z" fill="#FFBE9D"/>
<path d="M164.788 73.4136C164.788 73.4136 164.912 73.4936 165.116 73.5824C165.401 73.6952 165.719 73.6952 166.004 73.5824C166.732 73.307 167.327 72.1346 167.336 70.9177C167.346 70.326 167.221 69.7399 166.972 69.2033C166.904 68.9961 166.788 68.8078 166.634 68.6535C166.48 68.4993 166.291 68.3833 166.084 68.3151C165.945 68.282 165.799 68.2985 165.671 68.3617C165.543 68.425 165.441 68.531 165.383 68.6615C165.294 68.8569 165.383 68.9902 165.303 69.0079C165.223 69.0257 165.152 68.8924 165.205 68.5993C165.238 68.4289 165.329 68.2752 165.462 68.1641C165.555 68.09 165.662 68.0353 165.777 68.0033C165.891 67.9713 166.011 67.9625 166.129 67.9776C166.414 68.0303 166.681 68.155 166.905 68.34C167.129 68.525 167.302 68.7641 167.407 69.0346C167.714 69.627 167.87 70.2861 167.86 70.9532C167.86 72.3477 167.141 73.6623 166.146 73.9732C165.962 74.0294 165.767 74.0433 165.577 74.0141C165.386 73.9849 165.204 73.9133 165.045 73.8045C164.805 73.5735 164.77 73.4225 164.788 73.4136Z" fill="#EB996E"/>
<path d="M131.147 67.0716C131.142 67.4487 131.286 67.8127 131.547 68.0851C131.807 68.3575 132.165 68.5167 132.542 68.5283C132.724 68.5428 132.909 68.5205 133.083 68.4628C133.257 68.4051 133.418 68.3132 133.556 68.1923C133.694 68.0715 133.807 67.9242 133.887 67.7592C133.968 67.5942 134.015 67.4148 134.025 67.2315C134.03 66.8549 133.888 66.4913 133.629 66.2177C133.37 65.9441 133.015 65.782 132.639 65.7659C132.455 65.7514 132.27 65.7739 132.095 65.832C131.919 65.8902 131.757 65.9828 131.618 66.1044C131.479 66.2261 131.366 66.3743 131.285 66.5404C131.204 66.7065 131.157 66.8871 131.147 67.0716Z" fill="#263238"/>
<path d="M129.371 65.6237C129.549 65.8192 130.641 65.002 132.195 65.0108C133.749 65.0197 134.859 65.7925 135.064 65.5971C135.268 65.4017 134.966 65.1796 134.469 64.8154C133.797 64.3474 132.996 64.0991 132.177 64.1048C131.367 64.1034 130.578 64.3583 129.922 64.8332C129.451 65.1974 129.291 65.5438 129.371 65.6237Z" fill="#263238"/>
<path d="M146.067 67.2492C146.062 67.6263 146.205 67.9903 146.466 68.2627C146.727 68.5352 147.084 68.6943 147.461 68.7059C147.645 68.7217 147.83 68.7003 148.005 68.6432C148.18 68.5861 148.342 68.4943 148.482 68.3734C148.621 68.2524 148.734 68.1047 148.815 67.9391C148.896 67.7734 148.943 67.5932 148.953 67.4091C148.958 67.0311 148.815 66.6662 148.554 66.3923C148.294 66.1184 147.937 65.9574 147.559 65.9435C147.375 65.929 147.19 65.9515 147.014 66.0096C146.839 66.0678 146.677 66.1604 146.538 66.2821C146.399 66.4037 146.286 66.552 146.205 66.718C146.124 66.8841 146.077 67.0647 146.067 67.2492Z" fill="#263238"/>
<path d="M144.664 65.9435C144.841 66.13 145.943 65.3217 147.497 65.3217C149.051 65.3217 150.161 66.1034 150.356 65.9169C150.552 65.7303 150.259 65.4905 149.761 65.1352C149.091 64.6634 148.29 64.4147 147.47 64.4246C146.66 64.425 145.871 64.6797 145.214 65.153C144.744 65.4905 144.575 65.828 144.664 65.9435Z" fill="#263238"/>
<path d="M139.025 77.4907C138.203 77.2327 137.353 77.0775 136.493 77.0288C136.094 77.0288 135.721 76.9134 135.659 76.638C135.623 76.23 135.713 75.8209 135.916 75.4655C136.298 74.5062 136.689 73.4936 137.097 72.4366C138.723 68.1286 139.904 64.5934 139.762 64.5312C139.62 64.469 138.119 67.8977 136.493 72.2057C136.103 73.2715 135.721 74.2842 135.366 75.2523C135.115 75.7299 135.043 76.2808 135.161 76.8068C135.218 76.9471 135.306 77.0727 135.418 77.1742C135.531 77.2757 135.664 77.3505 135.81 77.393C136.03 77.4492 136.257 77.4791 136.485 77.4818C137.328 77.5916 138.181 77.5946 139.025 77.4907Z" fill="#263238"/>
<path d="M143.58 78.53C143.332 78.53 143.323 80.1999 141.875 81.399C140.428 82.5981 138.634 82.4116 138.625 82.6514C138.625 82.758 139.025 82.9801 139.788 82.9978C140.778 83.0111 141.74 82.6745 142.506 82.0474C143.239 81.4452 143.71 80.5824 143.82 79.6403C143.9 78.9385 143.714 78.5211 143.58 78.53Z" fill="#263238"/>
<path d="M144.264 59.8235C144.415 60.241 145.969 60.0455 147.816 60.2676C149.664 60.4897 151.111 60.9782 151.369 60.6051C151.484 60.4186 151.227 60.0189 150.632 59.6103C149.836 59.1102 148.938 58.7969 148.005 58.6938C147.071 58.5907 146.126 58.7006 145.241 59.0152C144.531 59.2905 144.202 59.6192 144.264 59.8235Z" fill="#263238"/>
<path d="M129.948 61.1203C130.224 61.4756 131.298 61.1203 132.613 61.1203C133.927 61.1203 134.993 61.3601 135.277 60.9871C135.383 60.8094 135.215 60.4541 134.735 60.0988C134.098 59.6907 133.351 59.4891 132.595 59.5215C131.839 59.5327 131.106 59.7813 130.499 60.2321C129.975 60.614 129.833 60.9515 129.948 61.1203Z" fill="#263238"/>
<path d="M121.139 45.1052C121.069 44.4768 121.16 43.8411 121.402 43.2572C121.644 42.6733 122.03 42.1601 122.524 41.7654C123.034 41.3966 123.658 41.2201 124.285 41.2672C124.913 41.3144 125.503 41.5821 125.952 42.023C125.858 41.5999 125.855 41.1618 125.941 40.7371C126.027 40.3124 126.201 39.9104 126.452 39.5572C126.703 39.204 127.025 38.9073 127.398 38.6864C127.771 38.4655 128.186 38.3252 128.616 38.2746C130.268 38.168 131.68 39.4204 133.27 39.8557C134.861 40.1801 136.514 39.9839 137.985 39.2961C139.486 38.6921 140.889 37.8571 142.426 37.3064C145.629 36.1348 149.165 36.2753 152.265 37.6975C155.365 39.1197 157.778 41.7085 158.98 44.9009C160.109 44.6238 161.297 44.6962 162.385 45.1085C163.472 45.5209 164.409 46.2538 165.072 47.2104C166.363 49.1684 166.879 51.5368 166.519 53.8544C166.299 55.4056 165.909 56.9278 165.356 58.3934C165.356 58.5266 165.356 58.651 165.356 58.7842C165.249 64.3447 164.619 70.8821 162.248 70.9177C158.109 70.9799 159.095 63.181 159.095 63.181C154.015 61.2269 155.907 53.6146 154.655 52.4599C153.402 51.3052 150.729 48.6227 140.099 54.0587C135.969 56.1639 130.481 56.1017 127.479 55.4178C127.393 55.4052 127.307 55.3874 127.222 55.3645H127.16H127.071C126.108 55.1232 125.188 54.7336 124.345 54.2097C123.347 53.6364 122.56 52.7586 122.098 51.7049C121.877 51.1787 121.814 50.5994 121.916 50.0379C122.019 49.4764 122.282 48.9569 122.675 48.5427C121.835 47.5735 121.301 46.3775 121.139 45.1052Z" fill="#263238"/>
</svg>
