<svg width="426" height="264" viewBox="0 0 426 264" fill="none" xmlns="http://www.w3.org/2000/svg">
<path d="M396.552 0.510315H29.3775C22.2314 0.510315 16.4383 6.30454 16.4383 13.4521V247.541C16.4383 254.688 22.2314 260.482 29.3775 260.482H396.552C403.698 260.482 409.492 254.688 409.492 247.541V13.4521C409.492 6.30454 403.698 0.510315 396.552 0.510315Z" fill="#263238"/>
<path d="M0 241.252H425.841V248.189C425.841 252.382 424.176 256.404 421.211 259.369C418.246 262.334 414.226 264 410.033 264H15.8077C11.6153 264 7.59451 262.334 4.62998 259.369C1.66545 256.404 0 252.382 0 248.189L0 241.252Z" fill="#263238"/>
<path d="M397.84 10.8406H26.9886V230.38H397.84V10.8406Z" fill="#455A64"/>
<path d="M174.214 241.252L179.498 249.655H253.856L258.767 241.252H174.214Z" fill="#455A64"/>
<path d="M388.062 18.2664H37.53C35.9262 18.2664 34.626 19.5668 34.626 21.1709V226.765C34.626 228.369 35.9262 229.669 37.53 229.669H388.062C389.666 229.669 390.966 228.369 390.966 226.765V21.1709C390.966 19.5668 389.666 18.2664 388.062 18.2664Z" fill="#EBEBEB"/>
<path d="M390.966 33.7574H34.626V229.678H390.966V33.7574Z" fill="#EBEBEB"/>
<path d="M63.8437 26.456C63.8455 27.0207 63.6796 27.5732 63.367 28.0435C63.0544 28.5137 62.6093 28.8805 62.0881 29.0974C61.5668 29.3144 60.9929 29.3716 60.4391 29.2618C59.8852 29.1521 59.3765 28.8804 58.9773 28.4811C58.578 28.0818 58.3064 27.5729 58.1966 27.019C58.0869 26.4651 58.1441 25.891 58.361 25.3697C58.5779 24.8483 58.9446 24.4031 59.4148 24.0904C59.8849 23.7778 60.4373 23.6119 61.0019 23.6136C61.7549 23.616 62.4764 23.9162 63.0088 24.4487C63.5412 24.9813 63.8414 25.7029 63.8437 26.456Z" fill="#455A64"/>
<path d="M46.5973 26.456C46.5991 27.0207 46.4331 27.5732 46.1206 28.0435C45.808 28.5137 45.3629 28.8805 44.8416 29.0974C44.3204 29.3144 43.7464 29.3716 43.1926 29.2618C42.6388 29.1521 42.13 28.8804 41.7308 28.4811C41.3316 28.0818 41.0599 27.5729 40.9502 27.019C40.8405 26.4651 40.8977 25.891 41.1146 25.3697C41.3314 24.8483 41.6982 24.4031 42.1684 24.0904C42.6385 23.7778 43.1909 23.6119 43.7555 23.6136C44.5085 23.616 45.2299 23.9162 45.7624 24.4487C46.2948 24.9813 46.595 25.7029 46.5973 26.456Z" fill="#455A64"/>
<path d="M54.8386 26.456C54.8404 27.0207 54.6745 27.5732 54.3619 28.0435C54.0493 28.5137 53.6042 28.8805 53.0829 29.0974C52.5617 29.3144 51.9878 29.3716 51.434 29.2618C50.8801 29.1521 50.3714 28.8804 49.9722 28.4811C49.573 28.0818 49.3013 27.5729 49.1916 27.019C49.0818 26.4651 49.139 25.891 49.3559 25.3697C49.5728 24.8483 49.9395 24.4031 50.4097 24.0904C50.8798 23.7778 51.4322 23.6119 51.9968 23.6136C52.7498 23.616 53.4713 23.9162 54.0037 24.4487C54.5361 24.9813 54.8363 25.7029 54.8386 26.456Z" fill="#455A64"/>
<path d="M406.108 241.252C406.108 241.394 318.863 241.501 211.282 241.501C103.701 241.501 16.4294 241.394 16.4294 241.252C16.4294 241.11 103.656 240.994 211.282 240.994C318.908 240.994 406.108 241.11 406.108 241.252Z" fill="#455A64"/>
</svg>
