<svg width="328" height="150" viewBox="0 0 328 150" fill="none" xmlns="http://www.w3.org/2000/svg">
<path d="M85.8202 83.5412L0.389191 91.6484L5.85255 149.241L91.2836 141.134L85.8202 83.5412Z" fill="white"/>
<path d="M91.2732 141.145C91.2732 141.145 91.211 140.771 91.14 140.079C91.0689 139.386 90.9535 138.302 90.8114 137.023C90.5361 134.358 90.1365 130.415 89.6302 125.423C88.6356 115.403 87.2236 101.049 85.4918 83.5772L85.8382 83.8615L0.423075 92.0511C0.334267 92.14 1.08913 91.2251 0.778299 91.6248V91.8379V92.0778L0.822706 92.5574L0.911519 93.5167L1.08913 95.4354C1.21346 96.7144 1.3378 97.9846 1.45325 99.2459C1.69007 101.786 1.92689 104.303 2.16371 106.796C2.63143 111.788 3.09618 116.697 3.55798 121.523C4.44605 131.161 5.33414 140.425 6.16005 149.201L5.7604 148.872L67.304 143.223L84.9234 141.651L89.6214 141.242L90.8469 141.153C90.9888 141.143 91.1312 141.143 91.2732 141.153C91.147 141.178 91.0195 141.196 90.8913 141.207L89.7102 141.34L85.0922 141.828L67.5793 143.605L5.87586 149.636H5.51174V149.272C4.66807 140.496 3.78888 131.232 2.84752 121.594C2.38572 116.768 1.918 111.859 1.44436 106.867C1.20162 104.374 0.961837 101.86 0.725017 99.3259C0.600687 98.0557 0.485247 96.7855 0.360917 95.5153L0.183291 93.5967L0.0856018 92.6374V92.1577V91.9179V91.7935V91.7047L0.449716 91.2606L85.8826 83.2664H86.2023V83.5861C87.7919 101.156 89.1063 115.563 90.021 125.662C90.4562 130.628 90.8025 134.545 91.0334 137.21C91.14 138.498 91.2288 139.492 91.2821 140.212C91.3353 140.931 91.2732 141.145 91.2732 141.145Z" fill="#455A64"/>
<path d="M85.8115 83.5417C85.6164 83.857 85.3935 84.1543 85.1454 84.4299L83.1384 86.7749L75.5986 95.3376L50.324 123.602L50.102 123.859L49.8178 123.673L47.5443 122.225L14.0994 100.774L4.01978 94.1918C2.88304 93.4368 1.98608 92.8239 1.29338 92.3709C0.975873 92.1722 0.678446 91.9432 0.405304 91.6869C0.754294 91.8393 1.08997 92.0205 1.40883 92.2287L4.20626 93.9253L14.3836 100.259L47.9529 121.514L50.2263 122.971L49.7201 123.042L75.1724 94.929L82.8897 86.544L85.0122 84.2967C85.2548 84.0209 85.5224 83.7682 85.8115 83.5417Z" fill="#455A64"/>
<path d="M266.406 0.339552L254.864 41.1891L315.464 58.3177L327.006 17.4681L266.406 0.339552Z" fill="white"/>
<path d="M315.441 58.3332C315.441 58.3332 315.503 58.0579 315.637 57.5694C315.77 57.0808 315.965 56.3258 316.223 55.3931C316.747 53.4656 317.51 50.6854 318.487 47.1413L326.764 17.4206L326.924 17.7048L266.313 0.632714L266.668 0.437299V0.499482V0.588299L266.624 0.757068L266.526 1.09461L266.331 1.77855L265.949 3.13756L265.185 5.8023L263.675 11.1318C262.672 14.6848 261.686 18.1578 260.718 21.5776C258.773 28.4082 256.917 34.9812 255.15 41.2078L254.963 40.8703L298.541 53.3058L310.974 56.9032L314.304 57.8714L315.192 58.1378L315.486 58.2355L315.21 58.1734L314.322 57.9513L311.036 57.063L298.603 53.6166L254.794 41.3677L254.537 41.2967L254.608 41.0391C256.384 34.8213 258.214 28.2394 260.141 21.3999C261.1 17.9831 262.083 14.5012 263.089 10.9541L264.599 5.62466C264.848 4.73641 265.105 3.84816 265.363 2.95992L265.744 1.6009L265.94 0.925837L266.029 0.579421L266.082 0.410652V0.321822V0.259652L266.446 0.0553589L327.022 17.2341L327.253 17.3051L327.182 17.5272C323.629 29.9626 320.681 40.1864 318.638 47.3279L316.329 55.5086C316.063 56.3969 315.85 57.1252 315.708 57.6315C315.565 58.1378 315.441 58.3332 315.441 58.3332Z" fill="#455A64"/>
<path d="M326.986 17.4828C326.773 17.6379 326.547 17.7746 326.311 17.8913L324.322 18.9573L316.898 22.8122L292.103 35.4431L291.88 35.5586L291.738 35.3543L290.575 33.7643L273.391 10.208L268.231 3.03098L266.863 1.10348C266.689 0.884005 266.54 0.64564 266.419 0.392883C266.618 0.589935 266.799 0.803923 266.961 1.03242L268.426 2.94216L273.755 10.0037L291.081 33.4623L292.254 35.0523L291.88 34.9635L316.747 22.528L324.251 18.8418L326.302 17.8647C326.518 17.717 326.747 17.5892 326.986 17.4828Z" fill="#455A64"/>
</svg>
