<svg width="30" height="30" viewBox="0 0 30 30" fill="none" xmlns="http://www.w3.org/2000/svg">
<path d="M29.5988 6.42789L4.09083 4.19623C3.97464 4.18616 3.85933 4.22243 3.77003 4.29737C3.68073 4.37231 3.62484 4.47959 3.6147 4.59573L3.30726 8.11H0.439452C0.196757 8.11 0 8.30675 0 8.54945V25.3658C0 25.6085 0.196757 25.8053 0.439452 25.8053H26.0449C26.2876 25.8053 26.4843 25.6085 26.4843 25.3658V24.8006L27.9799 24.9314C27.993 24.9325 28.0059 24.9331 28.0188 24.9331C28.2441 24.9331 28.436 24.7607 28.4561 24.5319L29.9983 6.90396C30.0194 6.66221 29.8406 6.44904 29.5988 6.42789ZM0.878904 8.9889H25.6054C25.6054 9.40216 25.4169 9.7839 25.0882 10.0361C24.9788 10.1199 14.1688 18.4066 14.0448 18.5011C13.8111 18.6802 13.5342 18.774 13.2421 18.774C12.9501 18.774 12.6729 18.6801 12.441 18.5029C12.3316 18.4189 1.50521 10.1196 1.39869 10.0376C1.06763 9.7839 0.878904 9.40222 0.878904 8.9889ZM25.6054 23.1717C25.5777 23.1479 17.5034 16.9575 17.5034 16.9575L25.6054 10.747V23.1717ZM0.878904 24.9264C0.878904 24.5131 1.06752 24.1314 1.39617 23.8792L4.98573 21.1275C5.17833 20.9799 5.21477 20.704 5.06712 20.5114C4.91946 20.3188 4.6436 20.2823 4.45101 20.43L0.878904 23.1683V10.7425C0.914295 10.7732 8.98076 16.9576 8.98076 16.9576L5.84606 19.3606C5.65347 19.5083 5.61702 19.7841 5.76468 19.9767C5.85122 20.0896 5.98177 20.1489 6.11378 20.1489C6.20706 20.1489 6.3011 20.1193 6.38085 20.0582L9.70311 17.5114L11.9068 19.2008C12.2938 19.4966 12.7555 19.653 13.2422 19.653C13.7293 19.653 14.191 19.4966 14.5773 19.2005C14.6116 19.1742 16.7812 17.5112 16.7812 17.5112C18.2176 18.6123 24.9732 23.7912 25.0849 23.8772C25.0859 23.8779 25.0867 23.8786 25.0877 23.8793C25.4167 24.1314 25.6054 24.513 25.6054 24.9264H0.878904ZM27.6188 24.0175L26.4843 23.9183V8.54945C26.4843 8.30675 26.2876 8.11 26.0449 8.11H4.18956L4.452 5.11012L29.0844 7.26519L27.6188 24.0175Z" fill="#404F54"/>
</svg>
