<svg width="30" height="30" viewBox="0 0 30 30" fill="none" xmlns="http://www.w3.org/2000/svg">
<g clip-path="url(#clip0)">
<path d="M15 0C9.44089 0 4.91827 4.52262 4.91827 10.0818C4.91827 12.248 5.59462 14.3118 6.87425 16.0508L14.5127 27.39C14.6219 27.5521 14.8046 27.6493 15 27.6493C15.1956 27.6493 15.3782 27.5521 15.4874 27.39L23.1258 16.0509C24.4055 14.3118 25.0818 12.248 25.0818 10.0818C25.0818 4.52262 20.5592 0 15 0ZM22.1702 15.3666C22.1628 15.3766 22.1556 15.3871 22.1487 15.3978L15 26.0098L7.85259 15.3995C7.84544 15.3882 7.83788 15.3773 7.82997 15.3666C6.69402 13.8281 6.09361 12.0007 6.09361 10.0817C6.09361 5.17072 10.0891 1.17533 15 1.17533C19.911 1.17533 23.9065 5.17078 23.9065 10.0818C23.9065 12.0007 23.3061 13.8282 22.1702 15.3666Z" fill="#404F54"/>
<path d="M19.1136 9.43175C18.7891 9.43175 18.526 9.69483 18.526 10.0194C18.526 11.9636 16.9442 13.5453 15 13.5453C13.0558 13.5453 11.4741 11.9636 11.4741 10.0194C11.4741 8.07519 13.0558 6.49345 15 6.49345C15.7067 6.49345 16.3882 6.70157 16.9711 7.09526C17.24 7.27696 17.6053 7.20624 17.787 6.9373C17.9687 6.66841 17.898 6.30308 17.629 6.12138C16.8511 5.59591 15.942 5.31812 15 5.31812C12.4077 5.31812 10.2987 7.42708 10.2987 10.0194C10.2987 12.6117 12.4077 14.7207 15 14.7207C17.5923 14.7207 19.7012 12.6117 19.7012 10.0194C19.7012 9.69483 19.4382 9.43175 19.1136 9.43175Z" fill="#404F54"/>
<path d="M22.0421 28.8247H7.93828C7.61373 28.8247 7.35065 29.0878 7.35065 29.4123C7.35065 29.7369 7.61373 30 7.93828 30H22.0421C22.3666 30 22.6297 29.7369 22.6297 29.4123C22.6298 29.0878 22.3666 28.8247 22.0421 28.8247Z" fill="#E8505B"/>
<path d="M18.6435 7.49878H18.6317C18.3072 7.49878 18.0441 7.76187 18.0441 8.08642C18.0441 8.41097 18.3072 8.67406 18.6317 8.67406H18.6435C18.968 8.67406 19.2311 8.41097 19.2311 8.08642C19.2312 7.76187 18.968 7.49878 18.6435 7.49878Z" fill="#404F54"/>
</g>
<defs>
<clipPath id="clip0">
<rect width="30" height="30" fill="white"/>
</clipPath>
</defs>
</svg>
