<svg width="30" height="30" viewBox="0 0 30 30" fill="none" xmlns="http://www.w3.org/2000/svg">
<g clip-path="url(#clip0)">
<path d="M29.2128 23.1435L23.1407 19.0942C22.3702 18.5844 21.3372 18.7521 20.7676 19.4796L18.9988 21.7537C18.7715 22.0535 18.3583 22.1404 18.0295 21.9577L17.693 21.7722C16.5777 21.1643 15.1899 20.4075 12.3938 17.6104C9.59774 14.8133 8.83936 13.4245 8.23142 12.3112L8.04694 11.9747C7.86175 11.6459 7.94705 11.231 8.24689 11.0019L10.5195 9.23364C11.2467 8.6639 11.4146 7.63128 10.9055 6.86048L6.85608 0.788373C6.33426 0.00345041 5.28734 -0.232179 4.47951 0.253433L1.94038 1.77869C1.14257 2.24773 0.557245 3.00734 0.307145 3.89836C-0.607192 7.22986 0.0806548 12.9795 8.55041 21.4503C15.2879 28.1873 20.3037 29.999 23.7512 29.999C24.5446 30.0024 25.3349 29.8992 26.1009 29.6921C26.9921 29.4423 27.7518 28.8569 28.2205 28.0588L29.7473 25.5212C30.2336 24.7132 29.9981 23.6657 29.2128 23.1435ZM28.8859 25.0083L27.3626 27.5474C27.026 28.1234 26.4796 28.5469 25.8378 28.7292C22.7623 29.5736 17.3891 28.8742 9.25777 20.7429C1.12646 12.6116 0.427127 7.23888 1.27151 4.16287C1.45406 3.52031 1.8781 2.97319 2.45481 2.63609L4.99395 1.11282C5.34446 0.901911 5.79885 1.00414 6.02528 1.34476L8.22497 4.64725L10.0712 7.41633C10.2923 7.75068 10.2197 8.1988 9.90426 8.4462L7.6311 10.2144C6.93933 10.7434 6.74178 11.7005 7.16769 12.4601L7.34819 12.7881C7.98712 13.9599 8.78147 15.4176 11.6816 18.3173C14.5816 21.2168 16.0389 22.0112 17.2102 22.6501L17.5387 22.8311C18.2982 23.2569 19.2554 23.0594 19.7843 22.3676L21.5525 20.0945C21.8 19.7792 22.248 19.7067 22.5824 19.9275L28.654 23.9769C28.9948 24.2032 29.0971 24.6578 28.8859 25.0083Z" fill="#404F54"/>
<path d="M16.9992 5.00274C21.6907 5.00796 25.4927 8.80995 25.4979 13.5015C25.4979 13.7776 25.7217 14.0014 25.9978 14.0014C26.274 14.0014 26.4977 13.7776 26.4977 13.5015C26.4919 8.25796 22.2427 4.00867 16.9992 4.00293C16.7231 4.00293 16.4993 4.22672 16.4993 4.50284C16.4993 4.77895 16.7231 5.00274 16.9992 5.00274Z" fill="#E8505B"/>
<path d="M16.9992 8.00225C20.0348 8.00583 22.4948 10.4658 22.4984 13.5015C22.4984 13.7776 22.7222 14.0014 22.9983 14.0014C23.2744 14.0014 23.4982 13.7776 23.4982 13.5015C23.494 9.91383 20.5867 7.00654 16.9992 7.00244C16.7231 7.00244 16.4993 7.22624 16.4993 7.50235C16.4993 7.77846 16.7231 8.00225 16.9992 8.00225Z" fill="#E8505B"/>
<path d="M16.9992 11.002C18.379 11.0036 19.4971 12.1218 19.4988 13.5017C19.4988 13.7778 19.7227 14.0016 19.9987 14.0016C20.2748 14.0016 20.4986 13.7778 20.4986 13.5017C20.4964 11.5699 18.931 10.0044 16.9992 10.0022C16.7231 10.0022 16.4993 10.226 16.4993 10.5021C16.4993 10.7782 16.7231 11.002 16.9992 11.002Z" fill="#E8505B"/>
</g>
<defs>
<clipPath id="clip0">
<rect width="30" height="30" fill="white"/>
</clipPath>
</defs>
</svg>
