<svg width="52" height="52" viewBox="0 0 52 52" fill="none" xmlns="http://www.w3.org/2000/svg">
<g clip-path="url(#clip0)">
<path d="M15.6969 5.71637C21.2875 0.125049 30.3841 0.124947 35.9747 5.71637C40.9325 10.6751 41.5946 18.4202 37.5487 24.1326C37.3054 24.476 37.3867 24.9515 37.73 25.1946C37.8636 25.2894 38.0173 25.3349 38.1695 25.3349C38.4083 25.3349 38.6433 25.2231 38.7918 25.0134C40.9296 21.9951 41.9435 18.2912 41.6469 14.5842C41.3469 10.8345 39.7151 7.30257 37.0519 4.6391C30.8671 -1.54647 20.8041 -1.54626 14.6196 4.6391C14.3221 4.93657 14.3221 5.41899 14.6196 5.71647C14.917 6.01395 15.3994 6.01395 15.6969 5.71637Z" fill="#404F54"/>
<path d="M51.2385 48.5045H46.4864C46.1558 47.3665 45.104 46.5324 43.8609 46.5324C42.6178 46.5324 41.566 47.3665 41.2354 48.5045H28.7241C28.4638 47.6084 27.7563 46.9008 26.8603 46.6404V31.6809C30.5739 31.4423 34.2201 29.9069 37.0519 27.0746C37.3494 26.7771 37.3494 26.2947 37.0519 25.9972C36.7546 25.6996 36.2723 25.6996 35.9747 25.9972C33.1789 28.7932 29.5081 30.191 25.8358 30.1907C22.1644 30.1904 18.4919 28.7925 15.6969 25.9972C10.7897 21.0894 10.0928 13.3942 14.0396 7.69982C14.2792 7.35399 14.1933 6.87929 13.8475 6.6396C13.5017 6.39981 13.0272 6.48594 12.7875 6.83166C8.42075 13.1321 9.1912 21.6454 14.6196 27.0745C17.5859 30.0411 21.4421 31.5849 25.3369 31.7058V46.6403C24.4409 46.9007 23.7334 47.6083 23.4731 48.5044H10.4362C10.1056 47.3664 9.05369 46.5323 7.81066 46.5323C6.56764 46.5323 5.51576 47.3664 5.18517 48.5044H0.761719C0.341047 48.5044 0 48.8454 0 49.2662C0 49.687 0.341047 50.028 0.761719 50.028H5.18517C5.51576 51.166 6.56754 52.0001 7.81066 52.0001C9.05379 52.0001 10.1056 51.166 10.4362 50.028H23.4731C23.8037 51.166 24.8556 52.0001 26.0986 52.0001C27.3416 52.0001 28.3934 51.166 28.724 50.028H41.2352C41.5658 51.166 42.6176 52.0001 43.8607 52.0001C45.1038 52.0001 46.1556 51.166 46.4862 50.028H51.2383C51.6591 50.028 52 49.687 52 49.2662C52 48.8454 51.6591 48.5044 51.2385 48.5045ZM7.81066 50.4764C7.1435 50.4764 6.60065 49.9335 6.60065 49.2662C6.60065 48.5988 7.1435 48.056 7.81066 48.056C8.47783 48.056 9.02068 48.5989 9.02068 49.2662C9.02068 49.9335 8.47783 50.4764 7.81066 50.4764ZM26.0986 50.4764C25.4315 50.4764 24.8886 49.9335 24.8886 49.2662C24.8886 48.5988 25.4315 48.056 26.0986 48.056C26.7658 48.056 27.3086 48.5989 27.3086 49.2662C27.3086 49.9335 26.7658 50.4764 26.0986 50.4764ZM43.8607 50.4764C43.1935 50.4764 42.6507 49.9335 42.6507 49.2662C42.6507 48.5988 43.1935 48.056 43.8607 48.056C44.5278 48.056 45.0707 48.5989 45.0707 49.2662C45.0707 49.9335 44.5278 50.4764 43.8607 50.4764Z" fill="#404F54"/>
<path d="M36.0488 13.3278C36.3934 12.9921 36.5151 12.4992 36.3664 12.0415C36.2178 11.584 35.8296 11.2567 35.3535 11.1875L29.671 10.3616C29.598 10.3509 29.5349 10.3051 29.5023 10.2389L26.961 5.08899C26.748 4.65755 26.317 4.38953 25.8359 4.38953C25.3548 4.38953 24.9237 4.65755 24.7108 5.08899L22.1695 10.2389C22.1369 10.3051 22.0737 10.3509 22.0007 10.3616L16.3182 11.1875C15.842 11.2567 15.4539 11.584 15.3053 12.0417C15.1566 12.4992 15.2783 12.9921 15.6228 13.3278L19.7346 17.3366C19.7875 17.3881 19.8116 17.4622 19.7991 17.535L18.8284 23.1953C18.747 23.6695 18.9383 24.1398 19.3275 24.4226C19.7166 24.7054 20.2228 24.7421 20.6488 24.5182L25.7315 21.8457C25.7967 21.8114 25.8747 21.8113 25.94 21.8457L31.0227 24.5182C31.2078 24.6155 31.4082 24.6636 31.6076 24.6636C31.8668 24.6635 32.1241 24.5824 32.344 24.4225C32.7332 24.1397 32.9244 23.6693 32.843 23.1952L31.8724 17.5349C31.8599 17.462 31.8839 17.3879 31.9369 17.3364L36.0488 13.3278ZM30.8736 16.2452C30.4617 16.6469 30.2737 17.2252 30.371 17.7923L31.2495 22.9159L26.649 20.4969C26.1396 20.2292 25.5317 20.2292 25.0225 20.4969L20.4219 22.9159L21.3005 17.7923C21.3977 17.2252 21.2098 16.6469 20.7979 16.2453L17.076 12.6168L22.2196 11.8693C22.7889 11.7865 23.2808 11.4291 23.5354 10.9132L25.8357 6.25167L28.136 10.9132C28.3906 11.4291 28.8826 11.7865 29.4518 11.8693L34.5954 12.6168L30.8736 16.2452Z" fill="#E8505B"/>
</g>
<defs>
<clipPath id="clip0">
<rect width="52" height="52" fill="white"/>
</clipPath>
</defs>
</svg>
