<svg width="52" height="52" viewBox="0 0 52 52" fill="none" xmlns="http://www.w3.org/2000/svg">
<g clip-path="url(#clip0)">
<path d="M49.0864 1.01562H46.0078C45.0545 1.01562 45.0112 2.53906 46.0078 2.53906H49.0864C49.8529 2.53906 50.4766 3.16276 50.4766 3.92925V23.0338H24.3052V18.2632C24.3052 17.3994 23.6025 16.6967 22.7387 16.6967H8.75875V3.92925C8.75875 3.16276 9.38245 2.53906 10.1489 2.53906H41.6406C42.5939 2.53906 42.6373 1.01562 41.6406 1.01562H10.1489C8.54232 1.01562 7.23531 2.32273 7.23531 3.92925V16.6968H1.5665C0.702711 16.6968 0 17.3995 0 18.2633V45.66C0 46.5239 0.702711 47.2266 1.5665 47.2266H17.4772V48.705C17.4772 49.7128 18.1419 50.5693 19.0601 50.8695C19.0721 50.8735 19.0839 50.8778 19.0961 50.8816C19.1003 50.8829 19.1045 50.8839 19.1086 50.8852C19.3201 50.9495 19.5444 50.9845 19.7768 50.9845H28.0927C28.3238 50.9845 28.5468 50.9498 28.7574 50.8862C28.7628 50.8845 28.7683 50.8832 28.7737 50.8815C28.7845 50.8781 28.7951 50.8742 28.8059 50.8707C29.7259 50.5716 30.3923 49.7141 30.3923 48.7051V37.2309H39.3226C40.2758 37.2309 40.3192 35.7074 39.3226 35.7074H36.1916L35.1406 31.1338H49.0863C50.6732 31.1338 51.9999 29.8109 51.9999 28.2202V3.92925C52 2.32263 50.693 1.01562 49.0864 1.01562ZM50.4766 24.5572V28.2186C50.4766 28.9816 49.8489 29.6102 49.0879 29.6102H30.3871C30.3113 28.4103 29.3114 27.4571 28.0927 27.4571H24.3052V24.5572H50.4766ZM28.0927 28.9807C28.5207 28.9807 28.8688 29.3288 28.8688 29.7567V46.2007H19.0006V29.7567C19.0006 29.3288 19.3488 28.9806 19.7768 28.9806H28.0927V28.9807ZM1.52344 45.6601C1.5665 45.6167 1.44087 18.211 1.5664 18.2203C1.5665 18.2202 22.7387 18.2202 22.7387 18.2202C22.7625 18.2202 22.7818 18.2395 22.7818 18.2633V27.4572H21.5091V20.2448C21.5091 19.8241 21.1681 19.483 20.7474 19.483H3.55784C3.13716 19.483 2.79612 19.8241 2.79612 20.2448V32.8047C2.79612 33.7579 4.31955 33.8013 4.31955 32.8047V21.0065H19.9857V27.4572C18.6666 27.4017 17.4772 28.3913 17.4772 29.7568V40.8174H4.31955V37.0177C4.31955 36.0645 2.79612 36.0211 2.79612 37.0177V41.5791C2.79612 41.9998 3.13716 42.3408 3.55784 42.3408H17.4772V45.7031C17.4339 45.6603 1.5143 45.7852 1.52344 45.6601ZM19.7811 49.4609C19.7018 49.4609 19.6253 49.4494 19.5532 49.4279C19.5517 49.4274 19.5501 49.427 19.5485 49.4266C19.5447 49.4254 19.5409 49.4241 19.5371 49.4229C19.2262 49.3216 19.0007 49.0291 19.0007 48.6849V47.7241H28.8689V48.6849C28.8689 49.0292 28.6436 49.3216 28.3326 49.423C28.3287 49.4242 28.325 49.4256 28.3211 49.4267C28.3195 49.4272 28.3179 49.4276 28.3162 49.4281C28.2441 49.4495 28.1676 49.461 28.0884 49.461H19.7811V49.4609ZM34.6284 35.7074H30.3923V31.1338H33.5775L34.6284 35.7074Z" fill="#404F54"/>
<path d="M12.9452 43.2446H11.3602C10.3516 43.2796 10.3524 44.7334 11.3602 44.7681H12.9452C13.9538 44.7331 13.953 43.2793 12.9452 43.2446Z" fill="#E8505B"/>
<path d="M23.2633 31.2805H24.6063C25.6149 31.2456 25.6141 29.7917 24.6063 29.7571H23.2633C22.2547 29.792 22.2554 31.2459 23.2633 31.2805Z" fill="#E8505B"/>
</g>
<defs>
<clipPath id="clip0">
<rect width="52" height="52" fill="white"/>
</clipPath>
</defs>
</svg>
