<svg width="52" height="52" viewBox="0 0 52 52" fill="none" xmlns="http://www.w3.org/2000/svg">
<path d="M47.9375 40.625H37.375V39.8125C37.375 38.5926 35.7874 37.7041 35.3009 37.4608C35.2592 37.4399 35.2157 37.4226 35.171 37.4092L27.2188 35.0234C26.7155 34.5789 24.9166 33.0178 22.7174 31.4344C19.2062 28.9067 16.4836 27.625 14.625 27.625H8.125V26.8125C8.125 26.597 8.0394 26.3903 7.88702 26.238C7.73465 26.0856 7.52799 26 7.3125 26H2.4375C2.22201 26 2.01535 26.0856 1.86298 26.238C1.7106 26.3903 1.625 26.597 1.625 26.8125V44.6875C1.625 44.903 1.7106 45.1097 1.86298 45.262C2.01535 45.4144 2.22201 45.5 2.4375 45.5H7.3125C7.52799 45.5 7.73465 45.4144 7.88702 45.262C8.0394 45.1097 8.125 44.903 8.125 44.6875V43.875H10.5246C11.0315 43.9424 15.1779 44.761 18.8431 45.4847C26.1742 46.932 27.2098 47.125 27.4384 47.125H47.9375C48.5837 47.1243 49.2033 46.8672 49.6603 46.4103C50.1172 45.9533 50.3743 45.3337 50.375 44.6875V43.0625C50.3743 42.4163 50.1172 41.7967 49.6603 41.3397C49.2033 40.8828 48.5837 40.6257 47.9375 40.625ZM6.5 43.875H3.25V27.625H6.5V43.875ZM48.75 44.6875C48.7498 44.9029 48.6641 45.1094 48.5118 45.2618C48.3594 45.4141 48.1529 45.4998 47.9375 45.5H27.4763C26.9694 45.4326 22.823 44.614 19.1583 43.8903C11.8267 42.443 10.7911 42.25 10.5625 42.25H8.125V29.25H14.625C17.6994 29.25 24.0726 34.3781 26.269 36.354C26.3582 36.4342 26.4641 36.4937 26.579 36.5283L34.6328 38.9442C35.1398 39.2112 35.6737 39.6367 35.75 39.8374V41.4375C35.7497 41.6413 35.673 41.8377 35.5349 41.9876C35.3968 42.1376 35.2075 42.2302 35.0043 42.2473L27.1011 40.6666L21.5281 37.482C21.4355 37.4289 21.3332 37.3946 21.2273 37.381C21.1214 37.3675 21.0138 37.3749 20.9108 37.4029C20.8077 37.431 20.7112 37.479 20.6268 37.5444C20.5423 37.6097 20.4715 37.6911 20.4186 37.7838C20.3656 37.8766 20.3314 37.9788 20.318 38.0848C20.3045 38.1907 20.3121 38.2983 20.3403 38.4013C20.3685 38.5043 20.4167 38.6007 20.4822 38.6851C20.5476 38.7695 20.6291 38.8401 20.7219 38.893L26.4094 42.143C26.4852 42.1863 26.5675 42.2172 26.6531 42.2344L34.7781 43.8594C34.8306 43.8698 34.884 43.875 34.9375 43.875C35.4414 43.8744 35.9327 43.7178 36.3441 43.4269C36.7555 43.136 37.0667 42.7249 37.2352 42.25H47.9375C48.1529 42.2502 48.3594 42.3359 48.5118 42.4882C48.6641 42.6406 48.7498 42.8471 48.75 43.0625V44.6875Z" fill="#404F54"/>
<path d="M35.7079 18.7121C35.6605 18.5704 35.575 18.4446 35.4607 18.3484C35.3464 18.2522 35.2078 18.1893 35.0602 18.1668L31.5587 17.6313L29.9855 14.2798C29.9199 14.1401 29.8159 14.022 29.6857 13.9392C29.5554 13.8564 29.4043 13.8125 29.25 13.8125C29.0957 13.8125 28.9445 13.8564 28.8143 13.9392C28.684 14.022 28.58 14.1401 28.5145 14.2798L26.9412 17.6313L23.4398 18.1664C23.2921 18.1889 23.1536 18.2518 23.0393 18.348C22.925 18.4441 22.8395 18.57 22.792 18.7116C22.7446 18.8533 22.7372 19.0052 22.7705 19.1508C22.8038 19.2964 22.8766 19.4301 22.9809 19.537L25.5384 22.1581L24.9331 25.8689C24.9085 26.0194 24.9267 26.1738 24.9858 26.3144C25.0448 26.455 25.1422 26.5762 25.2669 26.664C25.3915 26.7519 25.5384 26.8029 25.6907 26.8112C25.8429 26.8195 25.9945 26.7848 26.128 26.711L29.25 24.9854L32.372 26.711C32.5055 26.7848 32.657 26.8195 32.8093 26.8112C32.9615 26.803 33.1084 26.752 33.233 26.6642C33.3577 26.5763 33.4551 26.4552 33.5142 26.3146C33.5732 26.174 33.5915 26.0197 33.567 25.8692L32.9617 22.1584L35.519 19.5373C35.6233 19.4304 35.6961 19.2968 35.7295 19.1512C35.7628 19.0056 35.7553 18.8537 35.7079 18.7121ZM31.5122 21.3172C31.4234 21.4082 31.3572 21.5188 31.3189 21.64C31.2806 21.7613 31.2713 21.8899 31.2918 22.0154L31.6938 24.4795L29.643 23.346C29.5227 23.2795 29.3875 23.2446 29.25 23.2446C29.1125 23.2446 28.9773 23.2795 28.8569 23.346L26.8062 24.4795L27.2082 22.0154C27.2286 21.8899 27.2194 21.7613 27.1811 21.64C27.1428 21.5188 27.0766 21.4082 26.9878 21.3172L25.2484 19.5343L27.6148 19.1727C27.7467 19.1525 27.8716 19.1002 27.9785 19.0204C28.0854 18.9405 28.171 18.8356 28.2277 18.7148L29.25 16.5373L30.2719 18.7147C30.3286 18.8355 30.4142 18.9405 30.5211 19.0203C30.628 19.1002 30.7529 19.1525 30.8848 19.1727L33.2512 19.5343L31.5122 21.3172Z" fill="#E8505B"/>
<path d="M22.708 11.3996C22.6606 11.2579 22.575 11.1321 22.4607 11.0359C22.3465 10.9397 22.2079 10.8768 22.0602 10.8543L18.5588 10.3188L16.9855 6.96729C16.92 6.82759 16.816 6.70945 16.6857 6.6267C16.5555 6.54395 16.4043 6.5 16.25 6.5C16.0957 6.5 15.9446 6.54395 15.8143 6.6267C15.6841 6.70945 15.5801 6.82759 15.5145 6.96729L13.9412 10.3188L10.4398 10.8539C10.2921 10.8764 10.1534 10.9392 10.039 11.0354C9.92465 11.1316 9.83904 11.2575 9.79161 11.3993C9.74417 11.541 9.73675 11.6931 9.77016 11.8388C9.80357 11.9844 9.87652 12.1181 9.98098 12.225L12.5384 14.8461L11.9331 18.5569C11.9086 18.7074 11.927 18.8617 11.986 19.0022C12.0451 19.1428 12.1425 19.2638 12.2672 19.3516C12.3918 19.4394 12.5386 19.4904 12.6909 19.4987C12.8431 19.507 12.9946 19.4723 13.128 19.3985L16.25 17.6729L19.3721 19.3985C19.5055 19.4723 19.657 19.507 19.8093 19.4987C19.9615 19.4904 20.1083 19.4394 20.233 19.3516C20.3576 19.2638 20.455 19.1427 20.5141 19.0021C20.5732 18.8615 20.5915 18.7072 20.5669 18.5567L19.9616 14.8459L22.5191 12.2248C22.6234 12.1179 22.6962 11.9843 22.7295 11.8387C22.7628 11.6931 22.7554 11.5412 22.708 11.3996ZM18.5122 14.0047C18.4234 14.0957 18.3572 14.2063 18.3189 14.3275C18.2806 14.4488 18.2714 14.5774 18.2918 14.7029L18.6938 17.167L16.6431 16.0335C16.5227 15.967 16.3875 15.9321 16.25 15.9321C16.1125 15.9321 15.9773 15.967 15.857 16.0335L13.8062 17.167L14.2082 14.7029C14.2287 14.5774 14.2194 14.4488 14.1811 14.3275C14.1429 14.2063 14.0766 14.0957 13.9878 14.0047L12.2485 12.2218L14.6149 11.8602C14.7468 11.84 14.8717 11.7877 14.9785 11.7079C15.0854 11.628 15.171 11.5231 15.2277 11.4023L16.25 9.22482L17.272 11.4023C17.3288 11.5231 17.4143 11.628 17.5212 11.7079C17.6281 11.7877 17.753 11.84 17.8849 11.8602L20.2513 12.2218L18.5122 14.0047Z" fill="#E8505B"/>
<path d="M48.708 26.0246C48.6605 25.8829 48.575 25.7571 48.4607 25.6609C48.3464 25.5647 48.2079 25.5018 48.0602 25.4793L44.5587 24.9438L42.9855 21.5923C42.9199 21.4526 42.816 21.3345 42.6857 21.2517C42.5554 21.1689 42.4043 21.125 42.25 21.125C42.0957 21.125 41.9445 21.1689 41.8143 21.2517C41.684 21.3345 41.58 21.4526 41.5145 21.5923L39.9413 24.9438L36.4398 25.4789C36.292 25.5014 36.1534 25.5642 36.039 25.6604C35.9246 25.7566 35.839 25.8825 35.7916 26.0243C35.7441 26.166 35.7367 26.3181 35.7701 26.4638C35.8035 26.6094 35.8765 26.7431 35.9809 26.85L38.5383 29.4711L37.933 33.1819C37.9085 33.3324 37.9268 33.4867 37.9859 33.6273C38.045 33.7678 38.1424 33.8889 38.2671 33.9767C38.3917 34.0645 38.5385 34.1154 38.6908 34.1237C38.843 34.132 38.9945 34.0973 39.128 34.0235L42.25 32.2979L45.372 34.0235C45.5055 34.0973 45.657 34.132 45.8093 34.1237C45.9615 34.1155 46.1084 34.0645 46.233 33.9767C46.3577 33.8888 46.4551 33.7677 46.5142 33.6271C46.5732 33.4865 46.5916 33.3322 46.567 33.1817L45.9617 29.4709L48.519 26.8498C48.6233 26.7429 48.6961 26.6093 48.7295 26.4637C48.7628 26.3181 48.7553 26.1662 48.708 26.0246ZM44.5122 28.6297C44.4234 28.7207 44.3572 28.8313 44.3189 28.9525C44.2806 29.0738 44.2713 29.2024 44.2918 29.3279L44.6938 31.792L42.643 30.6585C42.5227 30.592 42.3875 30.5571 42.25 30.5571C42.1125 30.5571 41.9773 30.592 41.8569 30.6585L39.8062 31.792L40.2082 29.3279C40.2287 29.2024 40.2194 29.0738 40.1811 28.9525C40.1428 28.8313 40.0766 28.7207 39.9878 28.6297L38.2484 26.8468L40.6148 26.4852C40.7468 26.465 40.8717 26.4127 40.9786 26.3328C41.0855 26.253 41.1711 26.148 41.2278 26.0272L42.25 23.8498L43.2719 26.0272C43.3286 26.148 43.4142 26.253 43.5211 26.3328C43.628 26.4127 43.7529 26.465 43.8848 26.4852L46.2513 26.8468L44.5122 28.6297Z" fill="#E8505B"/>
</svg>
