<svg width="209" height="114" viewBox="0 0 209 114" fill="none" xmlns="http://www.w3.org/2000/svg">
<path d="M4.46985e-06 0.521545H208.527V109.558C208.533 110.11 208.43 110.657 208.224 111.169C208.018 111.681 207.712 112.146 207.326 112.539C206.939 112.932 206.478 113.244 205.971 113.457C205.463 113.671 204.919 113.781 204.368 113.782H4.16804C3.61689 113.782 3.07121 113.673 2.56258 113.46C2.05395 113.247 1.59246 112.935 1.20483 112.542C0.817205 112.15 0.511129 111.683 0.304321 111.171C0.0975123 110.659 -0.00592183 110.111 4.46985e-06 109.558V0.521545Z" fill="#F5F5F5"/>
<path d="M208.527 0.521545H0V21.563H208.527V0.521545Z" fill="#EBEBEB"/>
<path d="M12.7281 12.7276C13.6389 12.7276 14.3773 11.9871 14.3773 11.0737C14.3773 10.1604 13.6389 9.41991 12.7281 9.41991C11.8172 9.41991 11.0788 10.1604 11.0788 11.0737C11.0788 11.9871 11.8172 12.7276 12.7281 12.7276Z" fill="#FAFAFA"/>
<path d="M22.5969 12.7276C23.5078 12.7276 24.2462 11.9871 24.2462 11.0737C24.2462 10.1604 23.5078 9.41991 22.5969 9.41991C21.686 9.41991 20.9476 10.1604 20.9476 11.0737C20.9476 11.9871 21.686 12.7276 22.5969 12.7276Z" fill="#FAFAFA"/>
<path d="M32.4659 12.7276C33.3767 12.7276 34.1151 11.9871 34.1151 11.0737C34.1151 10.1604 33.3767 9.41991 32.4659 9.41991C31.555 9.41991 30.8166 10.1604 30.8166 11.0737C30.8166 11.9871 31.555 12.7276 32.4659 12.7276Z" fill="#FAFAFA"/>
<path d="M183.456 38.5238H104.712V41.3821H183.456V38.5238Z" fill="#EBEBEB"/>
<path d="M183.456 50.2805H104.712V53.1387H183.456V50.2805Z" fill="#EBEBEB"/>
<path d="M183.456 62.0461H104.712V64.9044H183.456V62.0461Z" fill="#EBEBEB"/>
<path d="M183.456 73.8027H104.712V76.661H183.456V73.8027Z" fill="#EBEBEB"/>
<path d="M144.08 85.5683H104.712V88.4266H144.08V85.5683Z" fill="#EBEBEB"/>
<path d="M84.723 36.5195H17.3443V92.741H84.723V36.5195Z" fill="#FAFAFA"/>
<path d="M17.2277 75.7622L37.1447 61.7764L51.0381 71.4118L72.8912 52.8691L84.732 64.6347V92.741H17.3443L17.2277 75.7622Z" fill="#EBEBEB"/>
<path d="M57.8416 52.8781C57.8416 53.9984 57.5101 55.0936 56.8892 56.025C56.2683 56.9564 55.3859 57.6822 54.3535 58.1105C53.3211 58.5388 52.1852 58.6504 51.0896 58.4312C49.9939 58.212 48.9877 57.6718 48.1983 56.8789C47.4089 56.0861 46.8718 55.0763 46.6549 53.9773C46.4381 52.8783 46.5512 51.7394 46.98 50.7049C47.4088 49.6703 48.1339 48.7866 49.0638 48.1654C49.9936 47.5443 51.0863 47.2137 52.2035 47.2155C53.6996 47.2179 55.1337 47.8155 56.1908 48.8772C57.2478 49.9389 57.8416 51.3778 57.8416 52.8781Z" fill="#EBEBEB"/>
</svg>
