<svg width="275" height="163" viewBox="0 0 275 163" fill="none" xmlns="http://www.w3.org/2000/svg">
<path d="M232.546 124.099C232.439 124.162 221.181 106.707 207.404 85.0989C193.627 63.4911 182.539 45.9101 182.647 45.8472C182.754 45.7843 194.003 63.2575 207.753 84.8292C221.503 106.401 232.609 124.027 232.546 124.099Z" fill="#263238"/>
<path d="M237.396 162.218C251.826 162.218 263.524 150.488 263.524 136.017C263.524 121.547 251.826 109.817 237.396 109.817C222.965 109.817 211.267 121.547 211.267 136.017C211.267 150.488 222.965 162.218 237.396 162.218Z" fill="white"/>
<path d="M211.267 136.062C211.267 136.062 211.267 135.918 211.267 135.64C211.267 135.361 211.267 134.921 211.312 134.39C211.312 134.112 211.312 133.806 211.312 133.492C211.312 133.177 211.402 132.791 211.455 132.395C211.562 131.485 211.733 130.584 211.966 129.699C212.551 127.223 213.513 124.852 214.817 122.67C216.709 119.429 219.269 116.63 222.327 114.462C225.384 112.293 228.869 110.804 232.547 110.095C233.645 109.889 234.756 109.757 235.872 109.7C236.437 109.7 237.01 109.619 237.584 109.628L239.332 109.718C239.933 109.735 240.533 109.798 241.125 109.906C241.707 109.996 242.308 110.068 242.917 110.185C245.33 110.734 247.664 111.586 249.864 112.72C250.42 113.025 250.958 113.376 251.513 113.699C252.068 114.027 252.598 114.393 253.1 114.796C255.257 116.342 257.141 118.237 258.675 120.405C260.32 122.606 261.595 125.062 262.449 127.676C264.259 133.089 264.259 138.946 262.449 144.358C261.589 146.976 260.315 149.437 258.675 151.648C257.88 152.722 257.014 153.743 256.085 154.704C255.146 155.62 254.146 156.469 253.091 157.248C252.589 157.65 252.059 158.017 251.504 158.344C250.949 158.677 250.411 159.027 249.855 159.324C248.747 159.906 247.6 160.411 246.422 160.834C245.271 161.252 244.095 161.594 242.899 161.858C242.317 161.984 241.716 162.047 241.107 162.146C240.515 162.255 239.915 162.318 239.314 162.335L237.566 162.416C236.992 162.416 236.419 162.371 235.854 162.344C234.735 162.29 233.621 162.158 232.52 161.948C228.859 161.242 225.39 159.765 222.341 157.615C219.293 155.464 216.734 152.689 214.835 149.473C213.533 147.289 212.572 144.919 211.984 142.444C211.752 141.558 211.582 140.657 211.473 139.747C211.42 139.343 211.357 138.983 211.33 138.642C211.303 138.3 211.33 138.004 211.33 137.743C211.33 137.213 211.33 136.799 211.285 136.494C211.24 136.188 211.285 136.071 211.285 136.071C211.285 136.071 211.285 136.215 211.33 136.494C211.375 136.772 211.375 137.204 211.411 137.734L211.473 138.633C211.473 138.965 211.581 139.334 211.635 139.729C211.759 140.64 211.945 141.541 212.19 142.426C212.8 144.872 213.776 147.212 215.086 149.365C216.983 152.528 219.526 155.252 222.548 157.361C225.569 159.469 229.001 160.913 232.618 161.598C233.702 161.797 234.798 161.923 235.899 161.975C236.464 161.975 237.019 162.047 237.593 162.038L239.305 161.948C239.886 161.93 240.464 161.867 241.035 161.76C241.618 161.661 242.2 161.598 242.783 161.472C243.953 161.207 245.106 160.867 246.234 160.456C247.392 160.036 248.521 159.537 249.613 158.964C250.16 158.668 250.689 158.317 251.226 157.994C251.775 157.672 252.299 157.312 252.795 156.915C253.83 156.149 254.809 155.311 255.726 154.407C256.643 153.464 257.494 152.458 258.272 151.396C259.885 149.215 261.135 146.787 261.974 144.206C263.748 138.889 263.748 133.137 261.974 127.82C261.135 125.239 259.885 122.81 258.272 120.629C257.497 119.568 256.649 118.562 255.735 117.618C254.813 116.719 253.834 115.882 252.804 115.111C252.308 114.714 251.784 114.353 251.235 114.032C250.698 113.708 250.169 113.367 249.622 113.061C248.532 112.488 247.403 111.992 246.243 111.578C245.116 111.16 243.964 110.818 242.792 110.554C242.209 110.437 241.627 110.365 241.044 110.275C240.473 110.164 239.895 110.098 239.314 110.077L237.602 109.987C237.037 109.987 236.473 110.041 235.908 110.059C234.81 110.106 233.716 110.233 232.636 110.437C229.015 111.113 225.578 112.553 222.554 114.662C219.53 116.771 216.987 119.501 215.095 122.67C213.783 124.822 212.807 127.162 212.199 129.609C211.952 130.493 211.766 131.394 211.644 132.305C211.59 132.701 211.518 133.06 211.482 133.402C211.446 133.743 211.437 134.04 211.42 134.301C211.42 134.831 211.357 135.199 211.339 135.55C211.321 135.9 211.267 136.062 211.267 136.062Z" fill="#263238"/>
<path d="M230.27 126.391L226.693 146.893L237.396 145.419L248.098 146.893L243.796 126.391H230.27Z" fill="#263238"/>
<path d="M241.913 126.669C241.833 126.669 241.618 125.932 241.017 124.872C240.696 124.243 240.261 123.679 239.735 123.209C239.416 122.957 239.063 122.751 238.687 122.598C238.274 122.456 237.841 122.383 237.405 122.382C236.553 122.34 235.707 122.543 234.967 122.966C234.389 123.361 233.927 123.904 233.631 124.539C233.093 125.636 232.914 126.4 232.833 126.382C232.86 125.692 233.031 125.015 233.335 124.395C233.617 123.672 234.103 123.048 234.734 122.598C235.538 122.096 236.477 121.854 237.423 121.906C237.912 121.909 238.397 121.997 238.857 122.166C239.282 122.336 239.676 122.576 240.022 122.876C240.576 123.396 241.018 124.023 241.322 124.719C241.647 125.323 241.848 125.986 241.913 126.669Z" fill="#263238"/>
<path d="M133.132 125.852C132.998 125.852 132.899 107.812 132.899 85.5572C132.899 63.3024 132.998 45.263 133.132 45.263C133.267 45.263 133.365 63.2934 133.365 85.5572C133.365 107.821 133.258 125.852 133.132 125.852Z" fill="#263238"/>
<path d="M132.594 162.802C147.025 162.802 158.723 151.072 158.723 136.602C158.723 122.131 147.025 110.401 132.594 110.401C118.164 110.401 106.466 122.131 106.466 136.602C106.466 151.072 118.164 162.802 132.594 162.802Z" fill="white"/>
<path d="M106.466 136.611C106.466 136.611 106.466 136.467 106.466 136.188C106.466 135.909 106.466 135.469 106.466 134.939C106.466 134.66 106.466 134.354 106.466 134.04C106.466 133.725 106.564 133.339 106.618 132.943C106.717 132.032 106.888 131.131 107.129 130.247C107.713 127.771 108.674 125.4 109.979 123.218C111.873 119.997 114.43 117.217 117.48 115.064C120.529 112.911 124.001 111.435 127.664 110.733C128.763 110.528 129.874 110.396 130.99 110.338C131.564 110.338 132.137 110.266 132.711 110.266L134.45 110.356C135.051 110.372 135.651 110.435 136.243 110.545C136.834 110.634 137.426 110.706 138.035 110.823C139.232 111.069 140.412 111.393 141.567 111.794C142.747 112.215 143.897 112.717 145.009 113.295C145.565 113.601 146.102 113.951 146.649 114.275C147.22 114.609 147.768 114.981 148.289 115.389C149.339 116.175 150.339 117.024 151.283 117.933C152.21 118.896 153.073 119.92 153.865 120.998C155.503 123.207 156.777 125.665 157.638 128.278C159.455 133.69 159.455 139.549 157.638 144.961C156.784 147.577 155.51 150.037 153.865 152.241C153.075 153.318 152.212 154.339 151.283 155.297C150.341 156.209 149.341 157.058 148.289 157.841C147.784 158.244 147.251 158.61 146.694 158.937C146.147 159.27 145.609 159.62 145.054 159.917C143.942 160.498 142.792 161.003 141.612 161.427C140.464 161.845 139.29 162.188 138.098 162.452C137.506 162.578 136.915 162.64 136.305 162.739C135.713 162.849 135.114 162.912 134.513 162.928L132.774 163.009C132.191 163.009 131.626 162.964 131.053 162.937C129.936 162.884 128.825 162.752 127.727 162.542C124.066 161.839 120.595 160.363 117.546 158.212C114.497 156.061 111.939 153.284 110.042 150.066C108.737 147.884 107.776 145.513 107.192 143.037C106.951 142.153 106.781 141.251 106.681 140.341C106.627 139.936 106.564 139.577 106.528 139.235C106.493 138.894 106.528 138.597 106.528 138.336C106.528 137.806 106.528 137.393 106.528 137.087C106.528 136.781 106.528 136.664 106.528 136.664C106.551 136.804 106.566 136.945 106.573 137.087C106.573 137.384 106.627 137.797 106.663 138.327C106.663 138.603 106.681 138.903 106.717 139.226C106.717 139.559 106.824 139.927 106.887 140.323C107.008 141.233 107.191 142.134 107.434 143.019C108.051 145.465 109.03 147.804 110.338 149.958C112.236 153.102 114.772 155.81 117.781 157.907C120.791 160.004 124.207 161.442 127.808 162.128C128.892 162.327 129.988 162.453 131.088 162.506C131.644 162.506 132.209 162.578 132.774 162.569L134.495 162.479C135.075 162.46 135.654 162.397 136.225 162.29C136.798 162.191 137.39 162.128 137.964 162.002C139.138 161.741 140.294 161.402 141.423 160.987C142.582 160.566 143.711 160.067 144.803 159.495C145.349 159.198 145.869 158.847 146.416 158.533C146.959 158.205 147.481 157.842 147.976 157.445C149.011 156.68 149.993 155.845 150.916 154.947C151.828 153.998 152.675 152.989 153.452 151.926C155.067 149.747 156.317 147.318 157.154 144.736C158.935 139.42 158.935 133.666 157.154 128.35C156.315 125.769 155.065 123.341 153.452 121.16C152.673 120.102 151.825 119.096 150.916 118.149C149.991 117.25 149.009 116.412 147.976 115.641C147.483 115.244 146.961 114.883 146.416 114.562C145.869 114.239 145.349 113.897 144.803 113.601C143.714 113.02 142.585 112.522 141.423 112.109C140.294 111.691 139.138 111.348 137.964 111.084C137.39 110.967 136.798 110.895 136.225 110.805C135.654 110.694 135.076 110.63 134.495 110.617L132.783 110.527C132.209 110.527 131.644 110.572 131.088 110.59C129.987 110.637 128.891 110.763 127.808 110.967C124.191 111.652 120.759 113.096 117.738 115.204C114.716 117.313 112.173 120.037 110.275 123.2C108.966 125.354 107.987 127.693 107.371 130.139C107.126 131.024 106.944 131.925 106.824 132.835C106.762 133.231 106.69 133.59 106.654 133.932C106.618 134.274 106.654 134.57 106.6 134.831C106.6 135.361 106.537 135.775 106.511 136.08C106.508 136.258 106.493 136.435 106.466 136.611V136.611Z" fill="#263238"/>
<path d="M132.594 124.872L121.264 135.199V148.286H130.094V140.44H135.705V148.286H143.933V135.199L132.594 124.872Z" fill="#263238"/>
<path d="M31.9879 125.007C31.8803 124.944 43.1295 107.102 57.0857 85.1798C71.0419 63.2575 82.4973 45.5236 82.6049 45.6315C82.7124 45.7394 71.4632 63.5271 57.507 85.4674C43.5508 107.408 32.0954 125.079 31.9879 125.007Z" fill="#263238"/>
<path d="M27.7571 162.47C42.1876 162.47 53.8858 150.739 53.8858 136.269C53.8858 121.799 42.1876 110.068 27.7571 110.068C13.3267 110.068 1.62846 121.799 1.62846 136.269C1.62846 150.739 13.3267 162.47 27.7571 162.47Z" fill="white"/>
<path d="M53.8858 136.278C53.8632 136.138 53.8483 135.997 53.841 135.855C53.841 135.55 53.7872 135.136 53.7513 134.606C53.7513 134.336 53.7513 134.031 53.6975 133.707C53.6437 133.384 53.59 133.006 53.5272 132.611C53.4123 131.699 53.2296 130.798 52.9805 129.914C52.3693 127.467 51.39 125.127 50.0763 122.975C48.1785 119.813 45.6354 117.088 42.6139 114.98C39.5924 112.871 36.1606 111.427 32.5436 110.742C31.4604 110.539 30.3641 110.413 29.263 110.365C28.7072 110.365 28.1425 110.293 27.5778 110.302L25.8568 110.392C25.276 110.406 24.6973 110.469 24.1269 110.581C23.5532 110.67 22.9616 110.742 22.388 110.859C21.2133 111.124 20.0574 111.466 18.928 111.884C17.7678 112.3 16.6385 112.799 15.5488 113.376C15.002 113.673 14.4821 114.014 13.9354 114.338C13.3915 114.661 12.8703 115.021 12.3757 115.416C11.3443 116.19 10.3624 117.027 9.43567 117.924C8.52608 118.872 7.67874 119.877 6.899 120.935C5.2863 123.116 4.03617 125.544 3.19707 128.126C1.41663 133.442 1.41663 139.195 3.19707 144.511C4.03441 147.093 5.28468 149.522 6.899 151.702C7.67641 152.764 8.52386 153.773 9.43567 154.722C10.3582 155.62 11.3405 156.455 12.3757 157.221C12.8687 157.62 13.39 157.984 13.9354 158.308C14.4821 158.623 15.002 158.973 15.5488 159.27C16.6421 159.839 17.7708 160.338 18.928 160.762C20.0563 161.181 21.2124 161.52 22.388 161.778C22.9616 161.903 23.5532 161.966 24.1269 162.065C24.6979 162.172 25.2763 162.235 25.8568 162.254L27.5778 162.344C28.1425 162.344 28.7072 162.344 29.263 162.281C30.3638 162.23 31.4599 162.104 32.5436 161.903C36.162 161.222 39.5953 159.78 42.6174 157.671C45.6394 155.563 48.1815 152.836 50.0763 149.67C51.3885 147.518 52.3677 145.178 52.9805 142.731C53.2279 141.847 53.4106 140.946 53.5272 140.035C53.59 139.64 53.6617 139.271 53.6975 138.938L53.7513 138.04C53.7513 137.509 53.823 137.141 53.841 136.799C53.8483 136.658 53.8632 136.517 53.8858 136.377C53.8858 136.377 53.8858 136.521 53.8858 136.799C53.8858 137.078 53.8858 137.518 53.8858 138.049C53.8858 138.327 53.8858 138.633 53.8858 138.947C53.8858 139.262 53.7872 139.657 53.7334 140.053C53.6327 140.963 53.4649 141.864 53.2314 142.749C52.6438 145.226 51.6794 147.596 50.3721 149.778C48.4668 152.99 45.9022 155.758 42.8485 157.899C39.7949 160.041 36.3219 161.507 32.6602 162.2C31.5623 162.41 30.4511 162.542 29.3347 162.595C28.77 162.595 28.1963 162.676 27.6137 162.667L25.8748 162.587C25.2732 162.57 24.6738 162.507 24.0821 162.398C23.4905 162.299 22.8989 162.236 22.2894 162.11C21.0971 161.846 19.9233 161.504 18.7757 161.085C17.5955 160.661 16.4455 160.156 15.3337 159.575C14.7779 159.279 14.2401 158.928 13.6933 158.596C13.1362 158.269 12.603 157.902 12.0978 157.499C11.0464 156.717 10.0464 155.867 9.10403 154.955C8.17484 153.997 7.31232 152.976 6.52253 151.899C4.8843 149.691 3.61022 147.233 2.7489 144.619C0.932395 139.207 0.932395 133.348 2.7489 127.937C3.61022 125.323 4.8843 122.865 6.52253 120.656C7.31761 119.578 8.18298 118.555 9.11299 117.591C10.0527 116.68 11.0497 115.831 12.0978 115.048C12.6052 114.648 13.1382 114.281 13.6933 113.951C14.2491 113.628 14.7779 113.277 15.3337 112.971C16.4457 112.393 17.5957 111.892 18.7757 111.47C19.922 111.048 21.096 110.706 22.2894 110.446C22.8809 110.32 23.4725 110.248 24.0821 110.158C24.6738 110.049 25.2732 109.985 25.8748 109.969L27.6137 109.879C28.1963 109.879 28.761 109.933 29.3347 109.951C30.4507 110.009 31.5617 110.141 32.6602 110.347C36.3233 111.048 39.7953 112.525 42.8448 114.678C45.8942 116.83 48.4512 119.61 50.3452 122.832C51.6525 125.013 52.6169 127.384 53.2045 129.86C53.4388 130.745 53.6066 131.647 53.7065 132.557C53.7603 132.952 53.832 133.321 53.8589 133.653C53.8858 133.986 53.8589 134.301 53.8589 134.552C53.8589 135.082 53.8589 135.496 53.8589 135.802C53.8589 136.107 53.8858 136.278 53.8858 136.278Z" fill="#263238"/>
<path d="M37.868 122.634H17.3504V149.913H37.868V122.634Z" fill="#263238"/>
<path d="M28.5997 126.993C26.3666 127.305 24.1012 127.305 21.8681 126.993C24.1012 126.682 26.3666 126.682 28.5997 126.993Z" fill="#455A64"/>
<path d="M34.5425 130.831C32.3035 131.062 30.0514 131.14 27.8019 131.065C25.5553 131.141 23.3063 131.062 21.0703 130.831C23.3063 130.6 25.5553 130.522 27.8019 130.597C30.0514 130.522 32.3035 130.6 34.5425 130.831Z" fill="#455A64"/>
<path d="M34.5425 133.168C32.3035 133.399 30.0514 133.477 27.8019 133.402C25.5553 133.477 23.3063 133.399 21.0703 133.168C23.3055 132.925 25.5551 132.844 27.8019 132.925C30.0516 132.844 32.3043 132.925 34.5425 133.168Z" fill="#455A64"/>
<path d="M34.5425 135.496C32.3035 135.727 30.0514 135.805 27.8019 135.73C25.5553 135.805 23.3063 135.727 21.0703 135.496C23.3063 135.265 25.5553 135.187 27.8019 135.262C30.0514 135.187 32.3035 135.265 34.5425 135.496Z" fill="#455A64"/>
<path d="M34.5425 137.86C32.3035 138.091 30.0514 138.169 27.8019 138.094C25.5553 138.169 23.3063 138.091 21.0703 137.86C23.3055 137.617 25.5551 137.536 27.8019 137.617C30.0516 137.536 32.3043 137.617 34.5425 137.86Z" fill="#455A64"/>
<path d="M34.5425 140.161C32.3035 140.392 30.0514 140.47 27.8019 140.395C25.5553 140.47 23.3063 140.392 21.0703 140.161C23.3063 139.929 25.5553 139.851 27.8019 139.927C30.0514 139.852 32.3035 139.93 34.5425 140.161Z" fill="#455A64"/>
<path d="M34.5425 142.489C32.3043 142.731 30.0516 142.812 27.8019 142.732C25.5551 142.813 23.3055 142.732 21.0703 142.489C23.3063 142.257 25.5553 142.179 27.8019 142.255C30.0514 142.18 32.3035 142.258 34.5425 142.489Z" fill="#455A64"/>
<path d="M34.5425 144.826C32.3035 145.057 30.0514 145.135 27.8019 145.059C25.5553 145.135 23.3063 145.057 21.0703 144.826C23.3063 144.594 25.5553 144.516 27.8019 144.592C30.0514 144.516 32.3035 144.595 34.5425 144.826Z" fill="#455A64"/>
<path d="M253.324 1.14864H22.0025C10.2255 1.14864 0.678329 10.7221 0.678329 22.5317V24.8776C0.678329 36.6871 10.2255 46.2607 22.0025 46.2607H253.324C265.101 46.2607 274.648 36.6871 274.648 24.8776V22.5317C274.648 10.7221 265.101 1.14864 253.324 1.14864Z" fill="white"/>
<path d="M213.947 0.744173V46.2607H252.266C258.286 46.2607 264.06 43.8632 268.318 39.5955C272.575 35.3277 274.968 29.5391 274.971 23.5024C274.971 20.513 274.383 17.5529 273.242 14.7911C272.101 12.0294 270.429 9.52014 268.32 7.40673C266.212 5.29331 263.709 3.61714 260.954 2.47396C258.2 1.33078 255.247 0.742992 252.266 0.744173H213.947Z" fill="#E8505B"/>
<path d="M249.577 22.2351C249.492 21.4554 249.364 20.6812 249.192 19.9161C248.637 17.8443 247.406 16.0184 245.696 14.7299C244.442 13.782 242.971 13.165 241.417 12.9358C239.863 12.7065 238.277 12.8722 236.804 13.4176C235.95 13.7263 235.149 14.166 234.429 14.7209C233.671 15.2813 233.003 15.9541 232.448 16.7163C231.271 18.3246 230.637 20.2673 230.637 22.2621C230.637 24.2568 231.271 26.1995 232.448 27.8078C232.996 28.5761 233.665 29.2501 234.429 29.8032C235.147 30.3506 235.945 30.7841 236.795 31.0885C238.03 31.5368 239.345 31.7228 240.656 31.6349C241.966 31.547 243.244 31.187 244.409 30.5777C245.574 29.9684 246.599 29.1232 247.421 28.0956C248.243 27.0679 248.843 25.8803 249.183 24.608C249.355 23.8399 249.484 23.0627 249.568 22.28C249.623 23.0774 249.55 23.8784 249.353 24.6529C248.85 26.7972 247.625 28.702 245.884 30.0458C244.593 31.0502 243.069 31.7105 241.455 31.9651C239.841 32.2197 238.188 32.0604 236.652 31.502C235.757 31.1922 234.916 30.7433 234.16 30.1717C233.361 29.5911 232.659 28.8873 232.08 28.0864C230.84 26.4026 230.171 24.3644 230.171 22.271C230.171 20.1777 230.84 18.1395 232.08 16.4556C233.232 14.8867 234.823 13.6976 236.652 13.0401C238.298 12.4508 240.071 12.3142 241.788 12.6446C243.612 12.9969 245.296 13.8695 246.638 15.1577C247.98 16.4459 248.923 18.095 249.353 19.9071C249.549 20.6665 249.625 21.4521 249.577 22.2351Z" fill="white"/>
<path d="M258.469 35.6815C256.549 34.5811 254.704 33.3529 252.948 32.0053C251.104 30.7758 249.349 29.4183 247.695 27.9426C249.618 29.0391 251.462 30.2674 253.216 31.6188C255.06 32.8483 256.815 34.2058 258.469 35.6815Z" fill="white"/>
<path d="M194.21 19.4757H26.7263V29.1291H194.21V19.4757Z" fill="#EBEBEB"/>
<path d="M253.324 46.2584C253.324 46.2584 253.853 46.2584 254.875 46.1595C255.51 46.1213 256.142 46.0402 256.766 45.9168C257.636 45.7805 258.495 45.5853 259.338 45.3326C261.698 44.6139 263.917 43.4952 265.9 42.0249L266.796 41.3598C267.083 41.1081 267.361 40.8384 267.648 40.5778C268.253 40.0348 268.822 39.4523 269.351 38.834C269.933 38.2228 270.391 37.4768 270.946 36.7668L271.645 35.6073L272.004 35.0051L272.309 34.3669C273.208 32.575 273.842 30.6614 274.191 28.6863C274.263 28.165 274.343 27.6347 274.424 27.1044C274.505 26.5741 274.487 26.0168 274.514 25.4685C274.514 24.3719 274.514 23.2215 274.514 22.071C274.386 16.6357 272.186 11.4562 268.366 7.59761C264.546 3.73903 259.397 1.49467 253.978 1.32607C247.865 1.27214 241.376 1.32607 234.581 1.32607L22.0115 1.39797C16.8589 1.41748 11.8891 3.31505 8.02842 6.73699C4.20828 10.109 1.74491 14.7617 1.09961 19.8239C1.01252 20.4436 0.96164 21.0678 0.947231 21.6935C0.947231 22.3137 0.902413 22.9428 0.947231 23.572C0.931557 24.823 0.979428 26.074 1.09065 27.3201C1.36414 29.7907 2.08399 32.1908 3.215 34.4028C5.44112 38.8112 9.12633 42.3064 13.6396 44.2899C15.8596 45.2395 18.2231 45.8077 20.6311 45.9707C21.8233 46.0516 23.0333 46.0426 24.2165 46.0426H69.7153L165.284 46.0966L229.705 46.1685L247.229 46.2134H251.782H253.333H251.782H247.229L229.705 46.2584L165.284 46.3303L69.7153 46.3842H24.2076C22.9975 46.3842 21.7964 46.3842 20.5684 46.3123C16.8291 46.0767 13.217 44.8611 10.0931 42.787C6.96919 40.7128 4.44293 37.8528 2.76682 34.4927C1.61155 32.233 0.876497 29.7811 0.597654 27.2572C0.479785 25.9934 0.428921 24.7243 0.445276 23.4552C0.445276 22.826 0.445279 22.1968 0.490096 21.5586C0.500398 20.9179 0.551292 20.2784 0.642474 19.6441C1.29779 14.4714 3.81237 9.71594 7.71469 6.26961C11.6748 2.76308 16.7733 0.82349 22.0563 0.813736L234.626 0.885644C241.429 0.885644 247.901 0.885646 254.032 0.930588C259.518 1.10653 264.728 3.38572 268.589 7.29864C272.449 11.2115 274.666 16.4601 274.783 21.9631C274.783 23.1316 274.783 24.2641 274.783 25.3786C274.783 25.9359 274.72 26.4842 274.684 27.0235C274.648 27.5628 274.523 28.1021 274.442 28.6234C274.086 30.6158 273.439 32.5449 272.524 34.3489L272.219 34.9961L271.852 35.5893C271.609 35.9938 271.376 36.3803 271.134 36.7668C270.632 37.4829 270.094 38.1729 269.521 38.834C268.994 39.4595 268.422 40.0454 267.809 40.5868C267.513 40.8564 267.226 41.1261 266.913 41.3687L266.016 42.0429C264.016 43.5104 261.778 44.6203 259.401 45.3236C258.552 45.5715 257.686 45.7607 256.811 45.8898C256.183 46.0067 255.548 46.0788 254.911 46.1056C253.853 46.2494 253.324 46.2584 253.324 46.2584Z" fill="#263238"/>
</svg>
