<svg width="174" height="158" viewBox="0 0 174 158" fill="none" xmlns="http://www.w3.org/2000/svg">
<path d="M169.079 0.519012H5.58453C2.86676 0.519012 0.663544 2.72828 0.663544 5.45356V152.232C0.663544 154.957 2.86676 157.166 5.58453 157.166H169.079C171.797 157.166 174 154.957 174 152.232V5.45356C174 2.72828 171.797 0.519012 169.079 0.519012Z" fill="#F5F5F5"/>
<path d="M6.40916 0.519012H168.254C169.778 0.519012 171.24 1.12602 172.317 2.2065C173.395 3.28699 174 4.75244 174 6.28047V18.0101H0.663544V6.28047C0.663544 4.75244 1.26891 3.28699 2.34642 2.2065C3.42393 1.12602 4.88533 0.519012 6.40916 0.519012Z" fill="#EBEBEB"/>
<path d="M11.2405 10.6667C11.9979 10.6667 12.6119 10.0511 12.6119 9.29155C12.6119 8.53205 11.9979 7.91635 11.2405 7.91635C10.4831 7.91635 9.86911 8.53205 9.86911 9.29155C9.86911 10.0511 10.4831 10.6667 11.2405 10.6667Z" fill="#FAFAFA"/>
<path d="M20.8135 9.29154C20.8153 9.5639 20.7364 9.83065 20.5868 10.058C20.4372 10.2853 20.2236 10.463 19.9732 10.5684C19.7227 10.6739 19.4467 10.7024 19.1801 10.6504C18.9135 10.5983 18.6682 10.4681 18.4755 10.2761C18.2828 10.0842 18.1514 9.83913 18.0977 9.57213C18.0441 9.30513 18.0707 9.02816 18.1742 8.77635C18.2777 8.52454 18.4535 8.30923 18.6792 8.15772C18.9049 8.00621 19.1705 7.92533 19.4421 7.92532C19.8043 7.92532 20.1517 8.06898 20.4087 8.32494C20.6656 8.58089 20.8112 8.92837 20.8135 9.29154Z" fill="#FAFAFA"/>
<path d="M27.6437 10.6667C28.4012 10.6667 29.0152 10.0511 29.0152 9.29155C29.0152 8.53205 28.4012 7.91635 27.6437 7.91635C26.8863 7.91635 26.2723 8.53205 26.2723 9.29155C26.2723 10.0511 26.8863 10.6667 27.6437 10.6667Z" fill="#FAFAFA"/>
<path d="M153.16 32.1037H87.7082V34.4766H153.16V32.1037Z" fill="#FAFAFA"/>
<path d="M153.16 41.8829H87.7082V44.2558H153.16V41.8829Z" fill="#FAFAFA"/>
<path d="M153.16 51.6621H87.7082V54.035H153.16V51.6621Z" fill="#FAFAFA"/>
<path d="M153.16 61.4324H87.7082V63.8053H153.16V61.4324Z" fill="#FAFAFA"/>
<path d="M120.434 71.2115H87.7082V73.5845H120.434V71.2115Z" fill="#FAFAFA"/>
<path d="M18.1872 92.8103L83.6388 92.8103V90.4374L18.1872 90.4374V92.8103Z" fill="#FAFAFA"/>
<path d="M18.1872 102.59L83.6388 102.59V100.217L18.1872 100.217V102.59Z" fill="#FAFAFA"/>
<path d="M18.1872 112.369L83.6388 112.369V109.996L18.1872 109.996V112.369Z" fill="#FAFAFA"/>
<path d="M18.1872 122.139L83.6388 122.139V119.766L18.1872 119.766V122.139Z" fill="#FAFAFA"/>
<path d="M50.913 131.918H83.6388V129.545H50.913V131.918Z" fill="#FAFAFA"/>
<path d="M150.955 87.8129H94.9418V134.543H150.955V87.8129Z" fill="#FAFAFA"/>
<path d="M94.8522 120.431L111.399 108.8L122.953 116.809L141.113 101.403L150.955 111.173V134.543H94.9508L94.8522 120.431Z" fill="#EBEBEB"/>
<path d="M123.921 106.104C126.51 106.104 128.609 103.999 128.609 101.403C128.609 98.8069 126.51 96.7022 123.921 96.7022C121.332 96.7022 119.233 98.8069 119.233 101.403C119.233 103.999 121.332 106.104 123.921 106.104Z" fill="#EBEBEB"/>
<path d="M74.2003 30.6656H18.1873V77.3955H74.2003V30.6656Z" fill="#FAFAFA"/>
<path d="M18.0886 63.2839L34.6442 51.6621L46.1892 59.6707L64.3583 44.2558L74.1913 54.035V77.3955H18.1872L18.0886 63.2839Z" fill="#EBEBEB"/>
<path d="M47.1573 48.9567C49.7464 48.9567 51.8452 46.852 51.8452 44.2558C51.8452 41.6596 49.7464 39.555 47.1573 39.555C44.5683 39.555 42.4694 41.6596 42.4694 44.2558C42.4694 46.852 44.5683 48.9567 47.1573 48.9567Z" fill="#EBEBEB"/>
</svg>
