<svg width="275" height="255" viewBox="0 0 275 255" fill="none" xmlns="http://www.w3.org/2000/svg">
<path d="M232.546 216.099C232.439 216.162 221.181 198.707 207.404 177.099C193.627 155.491 182.539 137.91 182.647 137.847C182.754 137.784 194.003 155.257 207.753 176.829C221.503 198.401 232.609 216.027 232.546 216.099Z" fill="#263238"/>
<path d="M237.396 254.218C251.826 254.218 263.524 242.488 263.524 228.017C263.524 213.547 251.826 201.817 237.396 201.817C222.965 201.817 211.267 213.547 211.267 228.017C211.267 242.488 222.965 254.218 237.396 254.218Z" fill="white"/>
<path d="M211.267 228.062C211.267 228.062 211.267 227.918 211.267 227.64C211.267 227.361 211.267 226.921 211.312 226.39C211.312 226.112 211.312 225.806 211.312 225.492C211.312 225.177 211.402 224.791 211.455 224.395C211.562 223.485 211.733 222.584 211.966 221.699C212.551 219.223 213.513 216.852 214.817 214.67C216.709 211.429 219.269 208.63 222.327 206.462C225.384 204.293 228.869 202.804 232.547 202.095C233.645 201.889 234.756 201.757 235.872 201.7C236.437 201.7 237.01 201.619 237.584 201.628L239.332 201.718C239.933 201.735 240.533 201.798 241.125 201.906C241.707 201.996 242.308 202.068 242.917 202.185C245.33 202.734 247.664 203.586 249.864 204.72C250.42 205.025 250.958 205.376 251.513 205.699C252.068 206.027 252.598 206.393 253.1 206.796C255.257 208.342 257.141 210.237 258.675 212.405C260.32 214.606 261.595 217.062 262.449 219.676C264.259 225.089 264.259 230.946 262.449 236.358C261.589 238.976 260.315 241.437 258.675 243.648C257.88 244.722 257.014 245.743 256.085 246.704C255.146 247.62 254.146 248.469 253.091 249.248C252.589 249.65 252.059 250.017 251.504 250.344C250.949 250.677 250.411 251.027 249.855 251.324C248.747 251.906 247.6 252.411 246.422 252.834C245.271 253.252 244.095 253.594 242.899 253.858C242.317 253.984 241.716 254.047 241.107 254.146C240.515 254.255 239.915 254.318 239.314 254.335L237.566 254.416C236.992 254.416 236.419 254.371 235.854 254.344C234.735 254.29 233.621 254.158 232.52 253.948C228.859 253.242 225.39 251.765 222.341 249.615C219.293 247.464 216.734 244.689 214.835 241.473C213.533 239.289 212.572 236.919 211.984 234.444C211.752 233.558 211.582 232.657 211.473 231.747C211.42 231.343 211.357 230.983 211.33 230.642C211.303 230.3 211.33 230.004 211.33 229.743C211.33 229.213 211.33 228.799 211.285 228.494C211.24 228.188 211.285 228.071 211.285 228.071C211.285 228.071 211.285 228.215 211.33 228.494C211.375 228.772 211.375 229.204 211.411 229.734L211.473 230.633C211.473 230.965 211.581 231.334 211.635 231.729C211.759 232.64 211.945 233.541 212.19 234.426C212.8 236.872 213.776 239.212 215.086 241.365C216.983 244.528 219.526 247.252 222.548 249.361C225.569 251.469 229.001 252.913 232.618 253.598C233.702 253.797 234.798 253.923 235.899 253.975C236.464 253.975 237.019 254.047 237.593 254.038L239.305 253.948C239.886 253.93 240.464 253.867 241.035 253.76C241.618 253.661 242.2 253.598 242.783 253.472C243.953 253.207 245.106 252.867 246.234 252.456C247.392 252.036 248.521 251.537 249.613 250.964C250.16 250.668 250.689 250.317 251.226 249.994C251.775 249.672 252.299 249.312 252.795 248.915C253.83 248.149 254.809 247.311 255.726 246.407C256.643 245.464 257.494 244.458 258.272 243.396C259.885 241.215 261.135 238.787 261.974 236.206C263.748 230.889 263.748 225.137 261.974 219.82C261.135 217.239 259.885 214.81 258.272 212.629C257.497 211.568 256.649 210.562 255.735 209.618C254.813 208.719 253.834 207.882 252.804 207.111C252.308 206.714 251.784 206.353 251.235 206.032C250.698 205.708 250.169 205.367 249.622 205.061C248.532 204.488 247.403 203.992 246.243 203.578C245.116 203.16 243.964 202.818 242.792 202.554C242.209 202.437 241.627 202.365 241.044 202.275C240.473 202.164 239.895 202.098 239.314 202.077L237.602 201.987C237.037 201.987 236.473 202.041 235.908 202.059C234.81 202.106 233.716 202.233 232.636 202.437C229.015 203.113 225.578 204.553 222.554 206.662C219.53 208.771 216.987 211.501 215.095 214.67C213.783 216.822 212.807 219.162 212.199 221.609C211.952 222.493 211.766 223.394 211.644 224.305C211.59 224.701 211.518 225.06 211.482 225.402C211.446 225.743 211.437 226.04 211.42 226.301C211.42 226.831 211.357 227.199 211.339 227.55C211.321 227.9 211.267 228.062 211.267 228.062Z" fill="#263238"/>
<path d="M230.27 218.391L226.693 238.893L237.396 237.419L248.098 238.893L243.796 218.391H230.27Z" fill="#263238"/>
<path d="M241.913 218.669C241.833 218.669 241.618 217.932 241.017 216.872C240.696 216.243 240.261 215.679 239.735 215.209C239.416 214.957 239.063 214.751 238.687 214.598C238.274 214.456 237.841 214.383 237.405 214.382C236.553 214.34 235.707 214.543 234.967 214.966C234.389 215.361 233.927 215.904 233.631 216.539C233.093 217.636 232.914 218.4 232.833 218.382C232.86 217.692 233.031 217.015 233.335 216.395C233.617 215.672 234.103 215.048 234.734 214.598C235.538 214.096 236.477 213.854 237.423 213.906C237.912 213.909 238.397 213.997 238.857 214.166C239.282 214.336 239.676 214.576 240.022 214.876C240.576 215.396 241.018 216.023 241.322 216.719C241.647 217.323 241.848 217.986 241.913 218.669Z" fill="#263238"/>
<path d="M133.132 217.852C132.998 217.852 132.899 199.812 132.899 177.557C132.899 155.302 132.998 137.263 133.132 137.263C133.267 137.263 133.365 155.293 133.365 177.557C133.365 199.821 133.258 217.852 133.132 217.852Z" fill="#263238"/>
<path d="M132.594 254.802C147.025 254.802 158.723 243.072 158.723 228.602C158.723 214.131 147.025 202.401 132.594 202.401C118.164 202.401 106.466 214.131 106.466 228.602C106.466 243.072 118.164 254.802 132.594 254.802Z" fill="white"/>
<path d="M106.466 228.611C106.466 228.611 106.466 228.467 106.466 228.188C106.466 227.909 106.466 227.469 106.466 226.939C106.466 226.66 106.466 226.354 106.466 226.04C106.466 225.725 106.564 225.339 106.618 224.943C106.717 224.032 106.888 223.131 107.129 222.247C107.713 219.771 108.674 217.4 109.979 215.218C111.873 211.997 114.43 209.217 117.48 207.064C120.529 204.911 124.001 203.435 127.664 202.733C128.763 202.528 129.874 202.396 130.99 202.338C131.564 202.338 132.137 202.266 132.711 202.266L134.45 202.356C135.051 202.372 135.651 202.435 136.243 202.545C136.834 202.634 137.426 202.706 138.035 202.823C139.232 203.069 140.412 203.393 141.567 203.794C142.747 204.215 143.897 204.717 145.009 205.295C145.565 205.601 146.102 205.951 146.649 206.275C147.22 206.609 147.768 206.981 148.289 207.389C149.339 208.175 150.339 209.024 151.283 209.933C152.21 210.896 153.073 211.92 153.865 212.998C155.503 215.207 156.777 217.665 157.638 220.278C159.455 225.69 159.455 231.549 157.638 236.961C156.784 239.577 155.51 242.037 153.865 244.241C153.075 245.318 152.212 246.339 151.283 247.297C150.341 248.209 149.341 249.058 148.289 249.841C147.784 250.244 147.251 250.61 146.694 250.937C146.147 251.27 145.609 251.62 145.054 251.917C143.942 252.498 142.792 253.003 141.612 253.427C140.464 253.845 139.29 254.188 138.098 254.452C137.506 254.578 136.915 254.64 136.305 254.739C135.713 254.849 135.114 254.912 134.513 254.928L132.774 255.009C132.191 255.009 131.626 254.964 131.053 254.937C129.936 254.884 128.825 254.752 127.727 254.542C124.066 253.839 120.595 252.363 117.546 250.212C114.497 248.061 111.939 245.284 110.042 242.066C108.737 239.884 107.776 237.513 107.192 235.037C106.951 234.153 106.781 233.251 106.681 232.341C106.627 231.936 106.564 231.577 106.528 231.235C106.493 230.894 106.528 230.597 106.528 230.336C106.528 229.806 106.528 229.393 106.528 229.087C106.528 228.781 106.528 228.664 106.528 228.664C106.551 228.804 106.566 228.945 106.573 229.087C106.573 229.384 106.627 229.797 106.663 230.327C106.663 230.603 106.681 230.903 106.717 231.226C106.717 231.559 106.824 231.927 106.887 232.323C107.008 233.233 107.191 234.134 107.434 235.019C108.051 237.465 109.03 239.804 110.338 241.958C112.236 245.102 114.772 247.81 117.781 249.907C120.791 252.004 124.207 253.442 127.808 254.128C128.892 254.327 129.988 254.453 131.088 254.506C131.644 254.506 132.209 254.578 132.774 254.569L134.495 254.479C135.075 254.46 135.654 254.397 136.225 254.29C136.798 254.191 137.39 254.128 137.964 254.002C139.138 253.741 140.294 253.402 141.423 252.987C142.582 252.566 143.711 252.067 144.803 251.495C145.349 251.198 145.869 250.847 146.416 250.533C146.959 250.205 147.481 249.842 147.976 249.445C149.011 248.68 149.993 247.845 150.916 246.947C151.828 245.998 152.675 244.989 153.452 243.926C155.067 241.747 156.317 239.318 157.154 236.736C158.935 231.42 158.935 225.666 157.154 220.35C156.315 217.769 155.065 215.341 153.452 213.16C152.673 212.102 151.825 211.096 150.916 210.149C149.991 209.25 149.009 208.412 147.976 207.641C147.483 207.244 146.961 206.883 146.416 206.562C145.869 206.239 145.349 205.897 144.803 205.601C143.714 205.02 142.585 204.522 141.423 204.109C140.294 203.691 139.138 203.348 137.964 203.084C137.39 202.967 136.798 202.895 136.225 202.805C135.654 202.694 135.076 202.63 134.495 202.617L132.783 202.527C132.209 202.527 131.644 202.572 131.088 202.59C129.987 202.637 128.891 202.763 127.808 202.967C124.191 203.652 120.759 205.096 117.738 207.204C114.716 209.313 112.173 212.037 110.275 215.2C108.966 217.354 107.987 219.693 107.371 222.139C107.126 223.024 106.944 223.925 106.824 224.835C106.762 225.231 106.69 225.59 106.654 225.932C106.618 226.274 106.654 226.57 106.6 226.831C106.6 227.361 106.537 227.775 106.511 228.08C106.508 228.258 106.493 228.435 106.466 228.611Z" fill="#263238"/>
<path d="M132.594 216.872L121.264 227.199V240.286H130.094V232.44H135.705V240.286H143.933V227.199L132.594 216.872Z" fill="#263238"/>
<path d="M31.9879 217.007C31.8803 216.944 43.1295 199.102 57.0857 177.18C71.0419 155.257 82.4973 137.524 82.6049 137.632C82.7124 137.739 71.4632 155.527 57.507 177.467C43.5508 199.408 32.0954 217.079 31.9879 217.007Z" fill="#263238"/>
<path d="M27.7571 254.47C42.1876 254.47 53.8858 242.739 53.8858 228.269C53.8858 213.799 42.1876 202.068 27.7571 202.068C13.3267 202.068 1.62846 213.799 1.62846 228.269C1.62846 242.739 13.3267 254.47 27.7571 254.47Z" fill="white"/>
<path d="M53.8858 228.278C53.8632 228.138 53.8483 227.997 53.841 227.855C53.841 227.55 53.7872 227.136 53.7513 226.606C53.7513 226.336 53.7513 226.031 53.6975 225.707C53.6437 225.384 53.59 225.006 53.5272 224.611C53.4123 223.699 53.2295 222.798 52.9805 221.914C52.3693 219.467 51.39 217.127 50.0763 214.975C48.1785 211.813 45.6354 209.088 42.6139 206.98C39.5924 204.871 36.1606 203.427 32.5436 202.742C31.4604 202.539 30.3641 202.413 29.263 202.365C28.7072 202.365 28.1425 202.293 27.5778 202.302L25.8568 202.392C25.276 202.406 24.6973 202.469 24.1269 202.581C23.5532 202.67 22.9616 202.742 22.388 202.859C21.2133 203.124 20.0574 203.466 18.928 203.884C17.7678 204.3 16.6385 204.799 15.5488 205.376C15.002 205.673 14.4821 206.014 13.9354 206.338C13.3915 206.661 12.8703 207.021 12.3757 207.416C11.3443 208.19 10.3624 209.027 9.43567 209.924C8.52608 210.872 7.67874 211.877 6.899 212.935C5.2863 215.116 4.03617 217.544 3.19707 220.126C1.41663 225.442 1.41663 231.195 3.19707 236.511C4.03441 239.093 5.28468 241.522 6.899 243.702C7.67641 244.764 8.52386 245.773 9.43567 246.722C10.3582 247.62 11.3405 248.455 12.3757 249.221C12.8687 249.62 13.39 249.984 13.9354 250.308C14.4821 250.623 15.002 250.973 15.5488 251.27C16.6421 251.839 17.7708 252.338 18.928 252.762C20.0563 253.181 21.2124 253.52 22.388 253.778C22.9616 253.903 23.5532 253.966 24.1269 254.065C24.6979 254.172 25.2763 254.235 25.8568 254.254L27.5778 254.344C28.1425 254.344 28.7072 254.344 29.263 254.281C30.3638 254.23 31.4599 254.104 32.5436 253.903C36.162 253.222 39.5953 251.78 42.6174 249.671C45.6394 247.563 48.1815 244.836 50.0763 241.67C51.3885 239.518 52.3677 237.178 52.9805 234.731C53.2279 233.847 53.4106 232.946 53.5272 232.035C53.59 231.64 53.6617 231.271 53.6975 230.938L53.7513 230.04C53.7513 229.509 53.823 229.141 53.841 228.799C53.8483 228.658 53.8632 228.517 53.8858 228.377C53.8858 228.377 53.8858 228.521 53.8858 228.799C53.8858 229.078 53.8858 229.518 53.8858 230.049C53.8858 230.327 53.8858 230.633 53.8858 230.947C53.8858 231.262 53.7872 231.657 53.7334 232.053C53.6327 232.963 53.465 233.864 53.2314 234.749C52.6438 237.226 51.6794 239.596 50.3721 241.778C48.4668 244.99 45.9022 247.758 42.8485 249.899C39.7949 252.041 36.3219 253.507 32.6602 254.2C31.5623 254.41 30.4511 254.542 29.3347 254.595C28.77 254.595 28.1963 254.676 27.6137 254.667L25.8748 254.587C25.2732 254.57 24.6738 254.507 24.0821 254.398C23.4905 254.299 22.8989 254.236 22.2894 254.11C21.0971 253.846 19.9233 253.504 18.7757 253.085C17.5955 252.661 16.4455 252.156 15.3337 251.575C14.7779 251.279 14.2401 250.928 13.6933 250.596C13.1362 250.269 12.603 249.902 12.0978 249.499C11.0464 248.717 10.0464 247.867 9.10403 246.955C8.17484 245.997 7.31232 244.976 6.52253 243.899C4.8843 241.691 3.61022 239.233 2.7489 236.619C0.932395 231.207 0.932395 225.348 2.7489 219.937C3.61022 217.323 4.8843 214.865 6.52253 212.656C7.31761 211.578 8.18298 210.555 9.11299 209.591C10.0527 208.68 11.0497 207.831 12.0978 207.048C12.6052 206.648 13.1382 206.281 13.6933 205.951C14.2491 205.628 14.7779 205.277 15.3337 204.971C16.4457 204.393 17.5957 203.892 18.7757 203.47C19.922 203.048 21.096 202.706 22.2894 202.446C22.8809 202.32 23.4725 202.248 24.0821 202.158C24.6738 202.049 25.2732 201.985 25.8748 201.969L27.6137 201.879C28.1963 201.879 28.761 201.933 29.3347 201.951C30.4507 202.009 31.5617 202.141 32.6602 202.347C36.3233 203.048 39.7953 204.525 42.8448 206.678C45.8942 208.83 48.4512 211.61 50.3452 214.832C51.6525 217.013 52.6169 219.384 53.2045 221.86C53.4388 222.745 53.6066 223.647 53.7065 224.557C53.7603 224.952 53.832 225.321 53.8589 225.653C53.8858 225.986 53.8589 226.301 53.8589 226.552C53.8589 227.082 53.8589 227.496 53.8589 227.802C53.8589 228.107 53.8858 228.278 53.8858 228.278Z" fill="#263238"/>
<path d="M37.868 214.634H17.3504V241.913H37.868V214.634Z" fill="#263238"/>
<path d="M28.5997 218.993C26.3666 219.305 24.1012 219.305 21.8681 218.993C24.1012 218.682 26.3666 218.682 28.5997 218.993Z" fill="#455A64"/>
<path d="M34.5425 222.831C32.3035 223.062 30.0514 223.14 27.8019 223.065C25.5553 223.141 23.3063 223.062 21.0703 222.831C23.3063 222.6 25.5553 222.522 27.8019 222.597C30.0514 222.522 32.3035 222.6 34.5425 222.831Z" fill="#455A64"/>
<path d="M34.5425 225.168C32.3035 225.399 30.0514 225.477 27.8019 225.402C25.5553 225.477 23.3063 225.399 21.0703 225.168C23.3055 224.925 25.5551 224.844 27.8019 224.925C30.0516 224.844 32.3043 224.925 34.5425 225.168Z" fill="#455A64"/>
<path d="M34.5425 227.496C32.3035 227.727 30.0514 227.805 27.8019 227.73C25.5553 227.805 23.3063 227.727 21.0703 227.496C23.3063 227.265 25.5553 227.187 27.8019 227.262C30.0514 227.187 32.3035 227.265 34.5425 227.496Z" fill="#455A64"/>
<path d="M34.5425 229.86C32.3035 230.091 30.0514 230.169 27.8019 230.094C25.5553 230.169 23.3063 230.091 21.0703 229.86C23.3055 229.617 25.5551 229.536 27.8019 229.617C30.0516 229.536 32.3043 229.617 34.5425 229.86Z" fill="#455A64"/>
<path d="M34.5425 232.161C32.3035 232.392 30.0514 232.47 27.8019 232.395C25.5553 232.47 23.3063 232.392 21.0703 232.161C23.3063 231.929 25.5553 231.851 27.8019 231.927C30.0514 231.852 32.3035 231.93 34.5425 232.161Z" fill="#455A64"/>
<path d="M34.5425 234.489C32.3043 234.731 30.0516 234.812 27.8019 234.732C25.5551 234.813 23.3055 234.732 21.0703 234.489C23.3063 234.257 25.5553 234.179 27.8019 234.255C30.0514 234.18 32.3035 234.258 34.5425 234.489Z" fill="#455A64"/>
<path d="M34.5425 236.826C32.3035 237.057 30.0514 237.135 27.8019 237.059C25.5553 237.135 23.3063 237.057 21.0703 236.826C23.3063 236.594 25.5553 236.516 27.8019 236.592C30.0514 236.516 32.3035 236.595 34.5425 236.826Z" fill="#455A64"/>
<path d="M253.324 93.1486H22.0025C10.2255 93.1486 0.678329 102.722 0.678329 114.532V116.878C0.678329 128.687 10.2255 138.261 22.0025 138.261H253.324C265.101 138.261 274.648 128.687 274.648 116.878V114.532C274.648 102.722 265.101 93.1486 253.324 93.1486Z" fill="white"/>
<path d="M213.947 92.7442V138.261H252.266C258.286 138.261 264.06 135.863 268.318 131.595C272.575 127.328 274.968 121.539 274.971 115.502C274.971 112.513 274.383 109.553 273.242 106.791C272.101 104.029 270.429 101.52 268.32 99.4067C266.212 97.2933 263.709 95.6171 260.954 94.474C258.2 93.3308 255.247 92.743 252.266 92.7442H213.947Z" fill="#E8505B"/>
<path d="M249.577 114.235C249.492 113.455 249.364 112.681 249.192 111.916C248.637 109.844 247.406 108.018 245.696 106.73C244.442 105.782 242.971 105.165 241.417 104.936C239.863 104.706 238.277 104.872 236.804 105.418C235.95 105.726 235.149 106.166 234.429 106.721C233.671 107.281 233.003 107.954 232.448 108.716C231.271 110.325 230.637 112.267 230.637 114.262C230.637 116.257 231.271 118.2 232.448 119.808C232.996 120.576 233.665 121.25 234.429 121.803C235.147 122.351 235.945 122.784 236.795 123.088C238.03 123.537 239.345 123.723 240.656 123.635C241.966 123.547 243.244 123.187 244.409 122.578C245.574 121.968 246.599 121.123 247.421 120.096C248.243 119.068 248.843 117.88 249.183 116.608C249.355 115.84 249.484 115.063 249.568 114.28C249.623 115.077 249.55 115.878 249.353 116.653C248.85 118.797 247.625 120.702 245.884 122.046C244.593 123.05 243.069 123.711 241.455 123.965C239.841 124.22 238.188 124.06 236.652 123.502C235.757 123.192 234.916 122.743 234.16 122.172C233.361 121.591 232.659 120.887 232.08 120.086C230.84 118.403 230.171 116.364 230.171 114.271C230.171 112.178 230.84 110.139 232.08 108.456C233.232 106.887 234.823 105.698 236.652 105.04C238.298 104.451 240.071 104.314 241.788 104.645C243.612 104.997 245.296 105.87 246.638 107.158C247.98 108.446 248.923 110.095 249.353 111.907C249.549 112.666 249.625 113.452 249.577 114.235Z" fill="white"/>
<path d="M258.469 127.681C256.549 126.581 254.704 125.353 252.948 124.005C251.104 122.776 249.349 121.418 247.695 119.943C249.618 121.039 251.462 122.267 253.216 123.619C255.06 124.848 256.815 126.206 258.469 127.681Z" fill="white"/>
<path d="M194.21 111.476H26.7263V121.129H194.21V111.476Z" fill="#EBEBEB"/>
<path d="M253.324 138.258C253.324 138.258 253.853 138.258 254.875 138.159C255.51 138.121 256.142 138.04 256.766 137.917C257.636 137.781 258.495 137.585 259.338 137.333C261.698 136.614 263.917 135.495 265.9 134.025L266.796 133.36C267.083 133.108 267.361 132.838 267.648 132.578C268.253 132.035 268.822 131.452 269.351 130.834C269.933 130.223 270.391 129.477 270.946 128.767L271.645 127.607L272.004 127.005L272.309 126.367C273.208 124.575 273.842 122.661 274.191 120.686C274.263 120.165 274.343 119.635 274.424 119.104C274.505 118.574 274.487 118.017 274.514 117.469C274.514 116.372 274.514 115.221 274.514 114.071C274.386 108.636 272.186 103.456 268.366 99.5976C264.546 95.739 259.397 93.4947 253.978 93.3261C247.865 93.2721 241.376 93.3261 234.581 93.3261L22.0115 93.398C16.8589 93.4175 11.8891 95.315 8.02842 98.737C4.20828 102.109 1.74491 106.762 1.09961 111.824C1.01252 112.444 0.96164 113.068 0.947231 113.693C0.947231 114.314 0.902413 114.943 0.947231 115.572C0.931557 116.823 0.979428 118.074 1.09065 119.32C1.36414 121.791 2.08399 124.191 3.215 126.403C5.44112 130.811 9.12633 134.306 13.6396 136.29C15.8596 137.24 18.2231 137.808 20.6311 137.971C21.8233 138.052 23.0333 138.043 24.2165 138.043H69.7153L165.284 138.097L229.705 138.168L247.229 138.213H251.782H253.333H251.782H247.229L229.705 138.258L165.284 138.33L69.7153 138.384H24.2076C22.9975 138.384 21.7964 138.384 20.5684 138.312C16.8291 138.077 13.217 136.861 10.0931 134.787C6.96919 132.713 4.44293 129.853 2.76682 126.493C1.61155 124.233 0.876497 121.781 0.597654 119.257C0.479785 117.993 0.428921 116.724 0.445276 115.455C0.445276 114.826 0.445279 114.197 0.490096 113.559C0.500398 112.918 0.551292 112.278 0.642474 111.644C1.29779 106.471 3.81237 101.716 7.71469 98.2696C11.6748 94.7631 16.7733 92.8235 22.0563 92.8137L234.626 92.8856C241.429 92.8856 247.901 92.8856 254.032 92.9306C259.518 93.1065 264.728 95.3857 268.589 99.2986C272.449 103.212 274.666 108.46 274.783 113.963C274.783 115.132 274.783 116.264 274.783 117.379C274.783 117.936 274.72 118.484 274.684 119.023C274.648 119.563 274.523 120.102 274.442 120.623C274.086 122.616 273.439 124.545 272.524 126.349L272.219 126.996L271.852 127.589C271.609 127.994 271.376 128.38 271.134 128.767C270.632 129.483 270.094 130.173 269.521 130.834C268.994 131.46 268.422 132.045 267.809 132.587C267.513 132.856 267.226 133.126 266.913 133.369L266.016 134.043C264.016 135.51 261.778 136.62 259.401 137.324C258.552 137.571 257.686 137.761 256.811 137.89C256.183 138.007 255.548 138.079 254.911 138.106C253.853 138.249 253.324 138.258 253.324 138.258Z" fill="#263238"/>
<path d="M134.62 110.217C133.804 109.265 133.724 108.42 135.561 108.294C139.604 107.925 142.58 106.155 143.055 105.13C143.53 104.105 142.239 103.108 141.146 103.719C139.89 104.265 138.566 104.64 137.211 104.833C136.122 105.018 135.01 105.018 133.921 104.833C132.98 104.69 132.128 104.528 131.411 104.375C131.411 104.375 127.136 103.476 125.289 102.002L116.236 111.7L120.485 116.509C121.121 117.406 121.975 118.125 122.967 118.597C123.959 119.069 125.054 119.279 126.15 119.206C129.789 118.846 134.692 116.23 134.692 116.23C135.355 115.206 141.217 118.837 143.109 120.194C145 121.551 146.389 121.21 146.317 119.907C146.273 119.008 140.59 114.711 138.69 113.408C137.22 112.488 135.855 111.409 134.62 110.19" fill="#FFBE9D"/>
<path d="M129.305 118.639C129.305 118.702 129.045 118.81 128.57 118.801C127.959 118.762 127.373 118.543 126.886 118.172C126.398 117.801 126.03 117.295 125.827 116.716C125.683 116.275 125.728 115.979 125.782 115.97C126.128 116.652 126.599 117.262 127.171 117.767C127.819 118.194 128.544 118.491 129.305 118.639Z" fill="#EB996E"/>
<path d="M132.89 117.228C132.89 117.282 132.63 117.381 132.182 117.354C131.599 117.296 131.045 117.074 130.583 116.713C130.121 116.352 129.771 115.867 129.574 115.314C129.439 114.891 129.466 114.613 129.52 114.604C129.574 114.595 129.896 115.601 130.873 116.347C131.496 116.744 132.176 117.042 132.89 117.228Z" fill="#EB996E"/>
<path d="M142.651 16.3261C143.028 24.2897 152.717 35.2014 159.924 36.9991C163.707 37.8979 168.063 37.4934 171.066 40.0461C176.22 44.4234 173.208 53.5285 176.677 59.3708C178.81 62.9661 183.05 64.7638 185.452 68.1703C189.441 73.8689 186.761 82.4796 181.32 86.722C175.879 90.9645 168.619 91.7734 161.797 91.5937C146.784 91.2072 131.411 86.4254 120.565 75.7564C115.465 70.741 95.5212 55.2722 102.477 18.5912" fill="#263238"/>
<path d="M196.827 73.3116L139.756 56.3238C137.096 55.1579 134.307 54.316 131.447 53.8161L112.175 53.9419C109.631 53.9505 107.114 54.4796 104.781 55.4969L52.837 72.7993C48.9917 74.0217 46.3385 77.9765 46.3385 82.4796C46.3385 88.0254 50.3273 92.5285 55.2482 92.5285H79.2704L79.1718 92.879L162.604 93.1936L194.452 93.2565C199.373 93.2565 203.361 88.7174 203.361 83.1088C203.325 78.5427 200.672 74.543 196.827 73.3116Z" fill="#E8505B"/>
<path d="M185.389 79.5045C185.217 79.5224 185.042 79.5224 184.87 79.5045L183.4 79.3337C182.127 79.1719 180.28 78.9652 178.021 78.7495C172.064 78.1732 166.079 77.9212 160.094 77.9945C154.119 78.0825 148.153 78.4905 142.221 79.2169C139.944 79.4955 138.098 79.7472 136.843 79.9449L135.373 80.1517C135.205 80.1829 135.033 80.198 134.862 80.1966C135.019 80.1276 135.185 80.0821 135.355 80.0618L136.807 79.7652C138.071 79.5135 139.909 79.2079 142.185 78.8663C148.127 78.0444 154.115 77.5912 160.112 77.5091C166.101 77.4348 172.088 77.735 178.039 78.4079C180.325 78.6686 182.172 78.9293 183.418 79.145L184.879 79.3967C185.053 79.4084 185.225 79.4447 185.389 79.5045Z" fill="#263238"/>
<g opacity="0.6">
<path opacity="0.6" d="M171.998 65.5997C171.955 65.6708 171.9 65.7345 171.837 65.7884L171.335 66.3187C170.886 66.7771 170.223 67.4602 169.318 68.2872C168.225 69.2961 167.067 70.2299 165.849 71.0825C164.233 72.2385 162.428 73.1024 160.516 73.6351C158.169 74.2187 155.711 74.169 153.39 73.4913C150.766 72.6768 148.246 71.5608 145.878 70.1657C143.303 68.6227 140.579 67.3429 137.748 66.3457C134.704 65.2982 131.375 65.4689 128.453 66.8221C125.45 68.1793 122.896 70.2466 120.108 71.7386C119.418 72.1251 118.683 72.4217 117.975 72.7453C117.256 73.0256 116.523 73.2686 115.779 73.4734C114.346 73.8836 112.874 74.1397 111.387 74.2374C106.203 74.6147 101.047 73.193 96.7851 70.2106C95.2204 69.0123 93.7464 67.6994 92.3751 66.2828C91.3358 65.2355 90.1914 64.2987 88.96 63.4874C87.8963 62.8152 86.7066 62.3686 85.4642 62.1752C85.7925 62.1807 86.1196 62.2168 86.4412 62.283C87.3657 62.4812 88.2505 62.8336 89.0586 63.3256C90.3169 64.1237 91.4885 65.0515 92.5543 66.094C93.9328 67.4816 95.4097 68.7673 96.9733 69.941C101.189 72.8364 106.265 74.2001 111.36 73.8059C112.816 73.7061 114.258 73.453 115.662 73.0509C116.389 72.8461 117.104 72.603 117.805 72.3229C118.495 72.0083 119.212 71.7207 119.884 71.3342C122.636 69.8691 125.182 67.7928 128.265 66.3906C131.29 64.999 134.733 64.8252 137.883 65.9053C140.74 66.919 143.488 68.22 146.084 69.7882C148.418 71.1757 150.902 72.2915 153.488 73.1138C155.746 73.7941 158.143 73.8624 160.435 73.3116C162.318 72.8042 164.101 71.9773 165.706 70.8668C166.926 70.0458 168.09 69.145 169.192 68.1703C170.089 67.3704 170.797 66.7142 171.272 66.2828L171.801 65.7794C171.926 65.6446 171.989 65.5907 171.998 65.5997Z" fill="white"/>
</g>
<g opacity="0.2">
<path opacity="0.2" d="M83.313 79.3877L119.391 86.2008L115.223 93.0049L114.13 93.0228L83.313 79.3877Z" fill="black"/>
</g>
<g opacity="0.6">
<path opacity="0.6" d="M192.515 72.242C192.535 72.4242 192.535 72.608 192.515 72.7903C192.495 73.3205 192.442 73.8489 192.354 74.3722C191.779 77.6598 190.04 80.6286 187.456 82.7326C184.872 84.8365 181.617 85.934 178.29 85.8232C176.465 85.7087 174.659 85.3768 172.912 84.8345C171.12 84.3222 169.372 83.7559 167.66 83.4144C166.025 83.0488 164.34 82.9607 162.676 83.1537C160.302 83.4392 158.021 84.2502 155.998 85.5279C153.975 86.8057 152.261 88.5184 150.979 90.542L150.512 91.324C150.399 91.5517 150.3 91.7495 150.217 91.9172C150.143 92.0893 150.05 92.2522 149.939 92.4026C149.988 92.2242 150.051 92.05 150.127 91.8813C150.208 91.7015 150.288 91.4948 150.387 91.2611L150.826 90.4522C151.797 88.7463 153.095 87.2496 154.645 86.0479C156.953 84.2273 159.716 83.077 162.631 82.7223C164.342 82.518 166.074 82.6 167.758 82.965C169.506 83.3065 171.254 83.8638 173.056 84.3851C174.777 84.9196 176.555 85.2484 178.353 85.3648C180.611 85.4394 182.851 84.9523 184.875 83.9469C186.899 82.9416 188.643 81.4493 189.952 79.6034C191.049 78.0272 191.818 76.2448 192.211 74.3632C192.471 73.006 192.462 72.233 192.515 72.242Z" fill="white"/>
</g>
<path d="M52.8818 91.369C52.8818 91.369 118.1 120.203 117.814 119.565C117.527 118.927 128.166 99.9887 128.166 99.9887L75.3265 73.797L52.8818 91.369Z" fill="#E8505B"/>
<path d="M82.8558 77.5361C83.3177 77.6902 83.7672 77.8795 84.2004 78.1023L87.7858 79.8011C90.8154 81.2482 94.9566 83.2796 99.5549 85.5536C104.153 87.8276 108.276 89.9039 111.261 91.4319L114.784 93.2296C115.225 93.4366 115.647 93.6802 116.048 93.9576C115.584 93.8128 115.134 93.6263 114.703 93.4003L111.118 91.7015C108.097 90.2544 103.947 88.2231 99.3487 85.9491C94.7504 83.675 90.6272 81.5988 87.6424 80.0708L84.1197 78.2731C83.6801 78.0604 83.2576 77.814 82.8558 77.5361Z" fill="#263238"/>
<g opacity="0.6">
<path opacity="0.6" d="M97.1437 86.2906C97.0597 86.9695 96.8531 87.6274 96.5341 88.2321C95.6685 89.9027 94.31 91.265 92.644 92.133C91.5247 92.752 90.3145 93.1889 89.0586 93.4273C87.5972 93.653 86.1099 93.653 84.6485 93.4273C81.3346 92.852 78.1276 91.773 75.1383 90.2275C72.1613 88.7159 69.0415 87.5055 65.8252 86.6142C64.4307 86.2625 62.9962 86.0963 61.5585 86.1198C60.3041 86.1538 59.0608 86.3657 57.8655 86.749C56.1166 87.2685 54.5422 88.2567 53.3121 89.6073C52.8924 90.1254 52.5005 90.6654 52.1379 91.2252C52.3834 90.5918 52.7351 90.0051 53.1776 89.4904C54.3868 88.0552 55.9787 86.9951 57.767 86.4344C58.9847 86.0203 60.2557 85.7841 61.5406 85.7333C63.016 85.6905 64.4903 85.8477 65.9237 86.2007C69.1583 87.0872 72.2917 88.3102 75.2727 89.85C78.2242 91.3728 81.3834 92.4509 84.6485 93.0498C86.0682 93.2703 87.5134 93.2703 88.9331 93.0498C90.1659 92.836 91.3576 92.4296 92.4647 91.8453C94.0938 91.0294 95.4445 89.7468 96.3459 88.1602C96.6537 87.5558 96.9203 86.9312 97.1437 86.2906Z" fill="white"/>
</g>
<g opacity="0.6">
<path opacity="0.6" d="M124.832 106.074C124.832 106.155 123.389 105.921 121.058 105.876C119.696 105.863 118.334 105.935 116.98 106.092C115.324 106.294 113.685 106.619 112.077 107.062C110.477 107.53 108.914 108.112 107.398 108.806C106.164 109.388 104.966 110.045 103.812 110.775C101.849 112.033 100.756 112.995 100.702 112.923C100.913 112.653 101.157 112.412 101.428 112.204C102.126 111.591 102.863 111.023 103.633 110.505C104.774 109.72 105.972 109.023 107.219 108.42C110.267 106.941 113.549 106.007 116.917 105.66C118.293 105.521 119.677 105.485 121.058 105.552C121.987 105.584 122.912 105.68 123.828 105.84C124.172 105.872 124.509 105.951 124.832 106.074Z" fill="white"/>
</g>
<g opacity="0.2">
<path opacity="0.2" d="M132.872 53.6903C131.797 56.7103 133.41 59.982 134.988 62.7684C135.993 64.769 137.265 66.6227 138.77 68.2782C139.524 69.1063 140.438 69.7722 141.457 70.2357C142.475 70.6992 143.577 70.9506 144.695 70.9747C147.626 70.8758 150.244 68.7096 153.175 68.8804C155.165 68.9972 156.903 70.1747 158.553 71.2893C161.35 73.3251 164.384 75.0123 167.588 76.3137C170.821 77.6105 174.383 77.8342 177.753 76.9519C179.423 76.488 180.947 75.6025 182.179 74.3798C183.411 73.1571 184.309 71.6382 184.789 69.968" fill="black"/>
</g>
<path d="M133.114 52.8633C133.267 49.34 133.455 46.1581 133.455 46.1581C133.455 46.1581 141.307 45.1604 141.639 37.1699C141.97 29.1793 141.181 10.6455 141.181 10.6455L126.777 3.65269L111.243 16.2362L113.672 53.0881C113.843 55.6434 115.006 58.0298 116.911 59.7354C118.817 61.4409 121.313 62.3297 123.864 62.2111C126.29 62.09 128.584 61.0642 130.296 59.3348C132.007 57.6055 133.012 55.2975 133.114 52.8633Z" fill="#FFBE9D"/>
<path d="M139.828 25.1256C139.826 25.3218 139.767 25.513 139.657 25.6755C139.547 25.838 139.392 25.9645 139.212 26.0391C139.031 26.1137 138.832 26.1333 138.64 26.0952C138.448 26.0571 138.271 25.9631 138.133 25.8251C137.994 25.687 137.898 25.5109 137.859 25.3188C137.819 25.1267 137.837 24.9271 137.91 24.745C137.982 24.563 138.107 24.4065 138.268 24.2951C138.429 24.1837 138.619 24.1225 138.815 24.1189C139.082 24.1189 139.338 24.2247 139.528 24.4132C139.718 24.6018 139.826 24.8578 139.828 25.1256Z" fill="#263238"/>
<path d="M140.796 22.9864C140.671 23.1212 139.9 22.4831 138.851 22.4471C137.802 22.4112 136.978 22.9504 136.861 22.8066C136.744 22.6628 136.933 22.492 137.282 22.2404C137.747 21.9099 138.309 21.7454 138.878 21.773C139.445 21.8044 139.988 22.0152 140.429 22.3752C140.751 22.6628 140.859 22.9235 140.796 22.9864Z" fill="#263238"/>
<path d="M127.924 25.1256C127.924 25.3239 127.866 25.5178 127.756 25.683C127.647 25.8481 127.491 25.9771 127.309 26.0538C127.126 26.1305 126.925 26.1515 126.731 26.1141C126.537 26.0767 126.358 25.9825 126.217 25.8435C126.076 25.7046 125.979 25.5269 125.938 25.3328C125.897 25.1387 125.915 24.9369 125.988 24.7527C126.061 24.5684 126.187 24.41 126.35 24.2973C126.512 24.1845 126.705 24.1225 126.903 24.1189C127.036 24.1178 127.167 24.1428 127.291 24.1928C127.414 24.2427 127.526 24.3166 127.621 24.41C127.716 24.5035 127.792 24.6148 127.844 24.7376C127.896 24.8604 127.923 24.9922 127.924 25.1256Z" fill="#263238"/>
<path d="M128.892 23.1932C128.767 23.328 127.996 22.6898 126.938 22.6539C125.881 22.6179 125.065 23.1572 124.957 23.0134C124.85 22.8696 125.029 22.6988 125.379 22.4471C125.841 22.118 126.399 21.9535 126.965 21.9797C127.535 22.0053 128.081 22.2203 128.516 22.5909C128.848 22.8696 128.955 23.1302 128.892 23.1932Z" fill="#263238"/>
<path d="M132.926 32.46C133.509 32.2926 134.112 32.202 134.719 32.1904C134.988 32.1904 135.257 32.1275 135.301 31.9297C135.334 31.6198 135.275 31.3071 135.131 31.0309C134.889 30.3028 134.629 29.5478 134.351 28.7479C133.63 26.8096 133.052 24.8209 132.621 22.7977C133.49 24.6722 134.215 26.6103 134.79 28.5951C135.05 29.395 135.301 30.159 135.534 30.8871C135.704 31.2489 135.748 31.6568 135.66 32.0466C135.621 32.1463 135.559 32.2355 135.48 32.3072C135.401 32.379 135.306 32.4313 135.203 32.46C135.05 32.4977 134.894 32.5158 134.737 32.514C134.133 32.5779 133.524 32.5597 132.926 32.46Z" fill="#263238"/>
<path d="M129.394 33.5656C128.301 32.8465 132.433 35.3632 134.62 35.3183C134.246 35.8823 133.69 36.3001 133.046 36.5014C132.401 36.7027 131.707 36.6753 131.08 36.4238C128.767 35.4621 129.394 33.5656 129.394 33.5656Z" fill="white"/>
<path d="M133.455 46.1581C129.735 46.0553 126.125 44.8685 123.066 42.7426C123.066 42.7426 125.513 48.5939 133.32 48.1355L133.455 46.1581Z" fill="#EB996E"/>
<path d="M102.773 24.1189C102.773 31.0669 100.935 49.4478 113.529 51.9825L113.108 26.7255C113.108 26.7255 125.343 20.9371 127.449 8.88385L127.521 8.95576C128.301 10.7534 129.699 14.6813 128.848 17.8631L140.312 20.6944L141.63 21.8988C141.63 21.8988 145.708 12.9106 137.838 4.82117C129.968 -3.26825 123.236 2.5831 119.015 2.1247C116.209 1.78314 106.466 1.84606 102.513 18.6541L102.773 24.1189Z" fill="#263238"/>
<path d="M113.421 26.9682C112.355 26.3031 110.894 26.8514 110.051 27.7772C109.375 28.5122 108.956 29.4478 108.856 30.4427C108.757 31.4377 108.982 32.4381 109.499 33.2932C110.016 34.1484 110.796 34.8118 111.722 35.1836C112.648 35.5553 113.669 35.6152 114.631 35.3542" fill="#FFBE9D"/>
<path d="M113.179 32.9544C113.179 33.0083 112.821 33.0712 112.283 32.9544C111.905 32.8589 111.555 32.6735 111.263 32.4138C110.971 32.1541 110.746 31.8277 110.607 31.4623C110.459 31.0337 110.478 30.565 110.661 30.15C110.809 29.8248 111.045 29.5477 111.342 29.3501C111.844 29.0265 112.238 29.0535 112.238 29.1074C112.238 29.1613 111.925 29.2782 111.548 29.6197C111.307 29.8195 111.131 30.0878 111.045 30.3894C110.959 30.691 110.965 31.0118 111.064 31.3095C111.185 31.6119 111.367 31.8861 111.598 32.115C111.829 32.3439 112.105 32.5225 112.409 32.6398C112.848 32.8195 113.179 32.8825 113.179 32.9544Z" fill="#EB996E"/>
<path d="M112.131 34.5363C111.912 34.5798 111.718 34.7032 111.585 34.8824C111.453 35.0616 111.392 35.2839 111.413 35.5059C111.435 35.728 111.539 35.934 111.703 36.0839C111.868 36.2337 112.083 36.3167 112.305 36.3167C112.528 36.3167 112.743 36.2337 112.907 36.0839C113.072 35.934 113.176 35.728 113.197 35.5059C113.219 35.2839 113.158 35.0616 113.025 34.8824C112.893 34.7032 112.698 34.5798 112.48 34.5363" fill="#E8505B"/>
<path d="M135.346 93.2385V80.0348C135.346 80.0348 115.797 84.0975 115.438 93.0768L135.346 93.2385Z" fill="#FFBE9D"/>
<path d="M133.311 51.4702C133.64 55.5367 135.464 59.3358 138.429 62.1296C141.394 64.9234 145.288 66.5125 149.356 66.5884C152.242 66.6333 155.281 65.9502 157.916 67.1277C160.211 68.1613 161.69 70.3814 163.492 72.1341C165.641 74.1672 168.295 75.5848 171.177 76.2393C174.059 76.8938 177.063 76.7612 179.877 75.8553C182.252 75.0553 186.008 73.3476 186.447 70.8848C186.788 69.0062 184.493 67.1367 183.149 65.7974C181.729 64.5216 180.1 63.5 178.335 62.7774C164.406 56.216 149.464 51.4522 134.1 50.6343" fill="#263238"/>
</svg>
