<svg width="171" height="111" viewBox="0 0 171 111" fill="none" xmlns="http://www.w3.org/2000/svg">
<path d="M170.133 0H0.821228V110.403H170.133V0Z" fill="#F5F5F5"/>
<path d="M107.86 55.8929C110.815 43.4841 103.179 31.0228 90.8041 28.0597C78.4295 25.0967 66.0024 32.754 63.0475 45.1628C60.0926 57.5716 67.7288 70.0329 80.1035 72.996C92.4781 75.959 104.905 68.3017 107.86 55.8929Z" fill="#E0E0E0"/>
<path d="M93.2171 50.5319L87.2026 54.0194L81.1791 57.4978V50.5319V43.566L87.2026 47.0535L93.2171 50.5319Z" fill="#F5F5F5"/>
<path d="M170.133 90.5746H0.821228V110.412H170.133V90.5746Z" fill="#E0E0E0"/>
<path d="M17.2692 100.489L14.8312 101.9L12.3931 103.311V100.489V97.6573L14.8312 99.0774L17.2692 100.489Z" fill="#F5F5F5"/>
<path d="M156.195 100.039H31.3062V100.938H156.195V100.039Z" fill="#F5F5F5"/>
<path d="M33.8339 100.489C33.8357 100.859 33.7278 101.221 33.5241 101.53C33.3203 101.838 33.0297 102.079 32.6892 102.222C32.3487 102.365 31.9735 102.403 31.6112 102.332C31.249 102.261 30.9159 102.084 30.6543 101.823C30.3926 101.562 30.2142 101.229 30.1415 100.866C30.0688 100.503 30.1052 100.126 30.2461 99.7842C30.3869 99.4421 30.6259 99.1496 30.9327 98.9437C31.2395 98.7379 31.6003 98.628 31.9694 98.628C32.4624 98.628 32.9352 98.8238 33.2846 99.1724C33.634 99.5211 33.8315 99.9943 33.8339 100.489Z" fill="#F5F5F5"/>
</svg>
