<svg width="52" height="51" viewBox="0 0 52 51" fill="none" xmlns="http://www.w3.org/2000/svg">
<path d="M17.7713 16.8101L30.4816 49.5453L35.788 40.9615L43.1291 50.6239L51.8865 42.2738L43.5414 34.2114L51.2411 28.9892L17.7713 16.8101Z" fill="#E8505B"/>
<path d="M12.9848 21.6548C11.5313 22.8565 9.98139 23.9357 8.35072 24.8815C6.80416 25.958 5.17002 26.9021 3.46561 27.7038C4.92263 26.5095 6.47228 25.4335 8.09977 24.4861C9.64756 23.4089 11.2814 22.4619 12.9848 21.6548Z" fill="#263238"/>
<path d="M13.9708 15.0574C13.2698 14.9636 12.5833 14.7824 11.9271 14.5181C10.6901 14.1226 8.98708 13.5204 7.14957 12.7204C5.31206 11.9205 3.66283 11.2374 2.48862 10.6801C1.83274 10.4204 1.20746 10.0888 0.624207 9.69141C1.31075 9.84427 1.97814 10.0734 2.61407 10.3745L7.31988 12.289L12.0436 14.1675C12.7161 14.3938 13.3622 14.6921 13.9708 15.0574Z" fill="#263238"/>
<path d="M17.8073 0.199799C18.0403 0.775998 18.1971 1.38037 18.2734 1.99745C18.4885 3.12098 18.7484 4.69394 18.9635 6.42867C19.1786 8.1634 19.322 9.75432 19.3847 10.9228C19.4674 11.5432 19.4674 12.1719 19.3847 12.7923C18.9786 10.7119 18.6794 8.61184 18.4884 6.50056C18.1499 4.41395 17.9225 2.3107 17.8073 0.199799Z" fill="#263238"/>
<path d="M35.4026 7.52524C35.4564 7.65107 33.1079 8.66673 30.4547 10.3745C27.8015 12.0823 25.7041 13.5653 25.6234 13.4485C25.5428 13.3316 26.0626 12.9631 26.8873 12.3249C27.9523 11.487 29.0593 10.704 30.2038 9.979C31.7876 8.87516 33.5449 8.04573 35.4026 7.52524Z" fill="#263238"/>
</svg>
